<?xml version="1.0" encoding="utf-8" standalone="no"?>
<!DOCTYPE svg PUBLIC "-//W3C//DTD SVG 1.1//EN"
  "http://www.w3.org/Graphics/SVG/1.1/DTD/svg11.dtd">
<svg xmlns:xlink="http://www.w3.org/1999/xlink" width="310.748438pt" height="219.008203pt" viewBox="0 0 310.748438 219.008203" xmlns="http://www.w3.org/2000/svg" version="1.1">
 <metadata>
  <rdf:RDF xmlns:dc="http://purl.org/dc/elements/1.1/" xmlns:cc="http://creativecommons.org/ns#" xmlns:rdf="http://www.w3.org/1999/02/22-rdf-syntax-ns#">
   <cc:Work>
    <dc:type rdf:resource="http://purl.org/dc/dcmitype/StillImage"/>
    <dc:date>2026-05-04T06:25:02.844826</dc:date>
    <dc:format>image/svg+xml</dc:format>
    <dc:creator>
     <cc:Agent>
      <dc:title>Matplotlib v3.10.9, https://matplotlib.org/</dc:title>
     </cc:Agent>
    </dc:creator>
   </cc:Work>
  </rdf:RDF>
 </metadata>
 <defs>
  <style type="text/css">*{stroke-linejoin: round; stroke-linecap: butt}</style>
 </defs>
 <g id="figure_1">
  <g id="patch_1">
   <path d="M 0 219.008203 
L 310.748438 219.008203 
L 310.748438 0 
L 0 0 
z
" style="fill: #ffffff"/>
  </g>
  <g id="axes_1">
   <g id="patch_2">
    <path d="M 41.288438 186.008203 
L 303.548438 186.008203 
L 303.548438 19.688203 
L 41.288438 19.688203 
z
" style="fill: #ffffff"/>
   </g>
   <g id="FillBetweenPolyCollection_1">
    <defs>
     <path id="m8550ca7ab8" d="M 53.209347 -112.792261 
L 53.209347 -88.969591 
L 60.659915 -117.156599 
L 68.110483 -126.72033 
L 75.561051 -122.32448 
L 83.011619 -142.176705 
L 90.462187 -137.35545 
L 97.912756 -113.847895 
L 105.363324 -113.367148 
L 112.813892 -74.182835 
L 120.26446 -49.331906 
L 127.715028 -48.192456 
L 135.165597 -40.665957 
L 142.616165 -58.277421 
L 150.066733 -59.595832 
L 157.517301 -70.80323 
L 164.967869 -67.334254 
L 172.418438 -74.969157 
L 179.869006 -110.557633 
L 187.319574 -118.539224 
L 194.770142 -142.146966 
L 202.22071 -117.437356 
L 209.671278 -97.236379 
L 217.121847 -118.440692 
L 224.572415 -115.178959 
L 232.022983 -133.684364 
L 239.473551 -120.418036 
L 246.924119 -118.338279 
L 254.374688 -99.808748 
L 261.825256 -137.24516 
L 269.275824 -149.660679 
L 276.726392 -154.828559 
L 284.17696 -139.577009 
L 291.627528 -140.081192 
L 291.627528 -143.862569 
L 291.627528 -143.862569 
L 284.17696 -147.265807 
L 276.726392 -182.936789 
L 269.275824 -171.090053 
L 261.825256 -152.622757 
L 254.374688 -120.607105 
L 246.924119 -133.622129 
L 239.473551 -138.442596 
L 232.022983 -158.956562 
L 224.572415 -130.383637 
L 217.121847 -133.109477 
L 209.671278 -117.469178 
L 202.22071 -128.85317 
L 194.770142 -152.806213 
L 187.319574 -130.078396 
L 179.869006 -123.754415 
L 172.418438 -105.633441 
L 164.967869 -102.139206 
L 157.517301 -104.213658 
L 150.066733 -98.820938 
L 142.616165 -97.985909 
L 135.165597 -89.048567 
L 127.715028 -92.4558 
L 120.26446 -93.274846 
L 112.813892 -105.674805 
L 105.363324 -124.239393 
L 97.912756 -124.656329 
L 90.462187 -140.506597 
L 83.011619 -150.101839 
L 75.561051 -128.64253 
L 68.110483 -131.00589 
L 60.659915 -126.405215 
L 53.209347 -112.792261 
z
"/>
    </defs>
    <g clip-path="url(#p101b6b7576)">
     <use xlink:href="#m8550ca7ab8" x="0" y="219.008203" style="fill: #252525; fill-opacity: 0.16"/>
    </g>
   </g>
   <g id="FillBetweenPolyCollection_2">
    <defs>
     <path id="m423fa87fc2" d="M 53.209347 -112.792261 
L 53.209347 -88.969591 
L 60.659915 -117.140844 
L 68.110483 -126.751841 
L 75.561051 -122.229946 
L 83.011619 -142.239728 
L 90.462187 -137.307789 
L 97.912756 -113.800628 
L 105.363324 -113.611559 
L 112.813892 -74.237881 
L 120.26446 -49.355737 
L 127.715028 -48.252242 
L 135.165597 -40.796434 
L 142.616165 -58.331976 
L 150.066733 -59.377861 
L 157.517301 -70.964628 
L 164.967869 -67.344459 
L 172.418438 -75.397876 
L 179.869006 -110.884389 
L 187.319574 -118.615206 
L 194.770142 -141.916489 
L 202.22071 -115.335541 
L 209.671278 -88.940345 
L 217.121847 -108.916154 
L 224.572415 -106.135463 
L 232.022983 -107.750426 
L 239.473551 -101.038484 
L 246.924119 -100.124651 
L 254.374688 -82.194626 
L 261.825256 -131.194958 
L 269.275824 -138.127481 
L 276.726392 -143.106293 
L 284.17696 -121.174312 
L 291.627528 -135.543541 
L 291.627528 -139.450963 
L 291.627528 -139.450963 
L 284.17696 -131.00589 
L 276.726392 -172.474982 
L 269.275824 -160.62667 
L 261.825256 -147.454876 
L 254.374688 -103.937539 
L 246.924119 -117.26689 
L 239.473551 -121.36338 
L 232.022983 -136.898534 
L 224.572415 -121.828371 
L 217.121847 -124.049832 
L 209.671278 -109.03711 
L 202.22071 -126.343719 
L 194.770142 -152.78248 
L 187.319574 -130.192825 
L 179.869006 -124.228004 
L 172.418438 -106.242245 
L 164.967869 -102.376238 
L 157.517301 -104.395144 
L 150.066733 -98.679604 
L 142.616165 -98.080443 
L 135.165597 -89.210162 
L 127.715028 -92.474885 
L 120.26446 -93.239395 
L 112.813892 -105.698636 
L 105.363324 -124.451701 
L 97.912756 -124.546039 
L 90.462187 -140.45933 
L 83.011619 -150.180618 
L 75.561051 -128.532239 
L 68.110483 -131.037401 
L 60.659915 -126.38946 
L 53.209347 -112.792261 
z
"/>
    </defs>
    <g clip-path="url(#p101b6b7576)">
     <use xlink:href="#m423fa87fc2" x="0" y="219.008203" style="fill: #b85c38; fill-opacity: 0.16"/>
    </g>
   </g>
   <g id="FillBetweenPolyCollection_3">
    <defs>
     <path id="m2bd44c6467" d="M 53.209347 -112.792261 
L 53.209347 -88.969591 
L 60.659915 -117.140844 
L 68.110483 -126.767597 
L 75.561051 -122.32448 
L 83.011619 -142.223972 
L 90.462187 -137.323939 
L 97.912756 -113.784872 
L 105.363324 -113.509147 
L 112.813892 -74.107897 
L 120.26446 -49.111129 
L 127.715028 -48.053433 
L 135.165597 -40.56 
L 142.616165 -58.186826 
L 150.066733 -59.324168 
L 157.517301 -70.806873 
L 164.967869 -67.414775 
L 172.418438 -74.895776 
L 179.869006 -110.532126 
L 187.319574 -118.402086 
L 194.770142 -142.121535 
L 202.22071 -119.010468 
L 209.671278 -102.693061 
L 217.121847 -124.608865 
L 224.572415 -121.422267 
L 232.022983 -148.967426 
L 239.473551 -130.974378 
L 246.924119 -128.64253 
L 254.374688 -110.807039 
L 261.825256 -141.278628 
L 269.275824 -157.4125 
L 276.726392 -163.774665 
L 284.17696 -151.047183 
L 291.627528 -142.728156 
L 291.627528 -146.509532 
L 291.627528 -146.509532 
L 284.17696 -159.492257 
L 276.726392 -191.76 
L 269.275824 -179.155413 
L 261.825256 -156.908316 
L 254.374688 -132.486929 
L 246.924119 -145.154539 
L 239.473551 -150.290908 
L 232.022983 -175.405548 
L 224.572415 -136.898731 
L 217.121847 -139.395818 
L 209.671278 -123.362371 
L 202.22071 -130.633327 
L 194.770142 -152.539079 
L 187.319574 -130.074211 
L 179.869006 -123.841068 
L 172.418438 -105.845016 
L 164.967869 -102.257362 
L 157.517301 -104.193668 
L 150.066733 -98.632903 
L 142.616165 -97.946716 
L 135.165597 -89.013116 
L 127.715028 -92.268656 
L 120.26446 -92.90882 
L 112.813892 -105.54482 
L 105.363324 -124.3808 
L 97.912756 -124.46726 
L 90.462187 -140.443574 
L 83.011619 -150.086084 
L 75.561051 -128.564145 
L 68.110483 -131.053157 
L 60.659915 -126.38946 
L 53.209347 -112.792261 
z
"/>
    </defs>
    <g clip-path="url(#p101b6b7576)">
     <use xlink:href="#m2bd44c6467" x="0" y="219.008203" style="fill: #287d8e; fill-opacity: 0.16"/>
    </g>
   </g>
   <g id="matplotlib.axis_1">
    <g id="xtick_1">
     <g id="line2d_1">
      <defs>
       <path id="m7b6433b42f" d="M 0 0 
L 0 3 
" style="stroke: #2a2a2a; stroke-width: 0.8"/>
      </defs>
      <g>
       <use xlink:href="#m7b6433b42f" x="53.209347" y="186.008203" style="fill: #2a2a2a; stroke: #2a2a2a; stroke-width: 0.8"/>
      </g>
     </g>
     <g id="text_1">
      <text style="font-size: 8px; font-family: 'STIX Two Text', 'Times New Roman', 'Times', 'STIXGeneral', serif; text-anchor: middle; fill: #2a2a2a" x="53.209347" y="197.971953" transform="rotate(-0 53.209347 197.971953)">0</text>
     </g>
    </g>
    <g id="xtick_2">
     <g id="line2d_2">
      <g>
       <use xlink:href="#m7b6433b42f" x="90.462187" y="186.008203" style="fill: #2a2a2a; stroke: #2a2a2a; stroke-width: 0.8"/>
      </g>
     </g>
     <g id="text_2">
      <text style="font-size: 8px; font-family: 'STIX Two Text', 'Times New Roman', 'Times', 'STIXGeneral', serif; text-anchor: middle; fill: #2a2a2a" x="90.462187" y="197.971953" transform="rotate(-0 90.462187 197.971953)">5</text>
     </g>
    </g>
    <g id="xtick_3">
     <g id="line2d_3">
      <g>
       <use xlink:href="#m7b6433b42f" x="127.715028" y="186.008203" style="fill: #2a2a2a; stroke: #2a2a2a; stroke-width: 0.8"/>
      </g>
     </g>
     <g id="text_3">
      <text style="font-size: 8px; font-family: 'STIX Two Text', 'Times New Roman', 'Times', 'STIXGeneral', serif; text-anchor: middle; fill: #2a2a2a" x="127.715028" y="197.971953" transform="rotate(-0 127.715028 197.971953)">10</text>
     </g>
    </g>
    <g id="xtick_4">
     <g id="line2d_4">
      <g>
       <use xlink:href="#m7b6433b42f" x="164.967869" y="186.008203" style="fill: #2a2a2a; stroke: #2a2a2a; stroke-width: 0.8"/>
      </g>
     </g>
     <g id="text_4">
      <text style="font-size: 8px; font-family: 'STIX Two Text', 'Times New Roman', 'Times', 'STIXGeneral', serif; text-anchor: middle; fill: #2a2a2a" x="164.967869" y="197.971953" transform="rotate(-0 164.967869 197.971953)">15</text>
     </g>
    </g>
    <g id="xtick_5">
     <g id="line2d_5">
      <g>
       <use xlink:href="#m7b6433b42f" x="202.22071" y="186.008203" style="fill: #2a2a2a; stroke: #2a2a2a; stroke-width: 0.8"/>
      </g>
     </g>
     <g id="text_5">
      <text style="font-size: 8px; font-family: 'STIX Two Text', 'Times New Roman', 'Times', 'STIXGeneral', serif; text-anchor: middle; fill: #2a2a2a" x="202.22071" y="197.971953" transform="rotate(-0 202.22071 197.971953)">20</text>
     </g>
    </g>
    <g id="xtick_6">
     <g id="line2d_6">
      <g>
       <use xlink:href="#m7b6433b42f" x="239.473551" y="186.008203" style="fill: #2a2a2a; stroke: #2a2a2a; stroke-width: 0.8"/>
      </g>
     </g>
     <g id="text_6">
      <text style="font-size: 8px; font-family: 'STIX Two Text', 'Times New Roman', 'Times', 'STIXGeneral', serif; text-anchor: middle; fill: #2a2a2a" x="239.473551" y="197.971953" transform="rotate(-0 239.473551 197.971953)">25</text>
     </g>
    </g>
    <g id="xtick_7">
     <g id="line2d_7">
      <g>
       <use xlink:href="#m7b6433b42f" x="276.726392" y="186.008203" style="fill: #2a2a2a; stroke: #2a2a2a; stroke-width: 0.8"/>
      </g>
     </g>
     <g id="text_7">
      <text style="font-size: 8px; font-family: 'STIX Two Text', 'Times New Roman', 'Times', 'STIXGeneral', serif; text-anchor: middle; fill: #2a2a2a" x="276.726392" y="197.971953" transform="rotate(-0 276.726392 197.971953)">30</text>
     </g>
    </g>
    <g id="text_8">
     <text style="font-size: 9px; font-family: 'STIX Two Text', 'Times New Roman', 'Times', 'STIXGeneral', serif; text-anchor: middle" x="172.418438" y="209.846484" transform="rotate(-0 172.418438 209.846484)">Layer</text>
    </g>
   </g>
   <g id="matplotlib.axis_2">
    <g id="ytick_1">
     <g id="line2d_8">
      <path d="M 41.288438 182.032534 
L 303.548438 182.032534 
" clip-path="url(#p101b6b7576)" style="fill: none; stroke: #d9d9d9; stroke-opacity: 0.7; stroke-width: 0.45; stroke-linecap: square"/>
     </g>
     <g id="line2d_9">
      <defs>
       <path id="m403732c2f7" d="M 0 0 
L -3 0 
" style="stroke: #2a2a2a; stroke-width: 0.8"/>
      </defs>
      <g>
       <use xlink:href="#m403732c2f7" x="41.288438" y="182.032534" style="fill: #2a2a2a; stroke: #2a2a2a; stroke-width: 0.8"/>
      </g>
     </g>
     <g id="text_9">
      <text style="font-size: 8px; font-family: 'STIX Two Text', 'Times New Roman', 'Times', 'STIXGeneral', serif; text-anchor: end; fill: #2a2a2a" x="34.788438" y="184.764409" transform="rotate(-0 34.788438 184.764409)">−2.5</text>
     </g>
    </g>
    <g id="ytick_2">
     <g id="line2d_10">
      <path d="M 41.288438 162.369378 
L 303.548438 162.369378 
" clip-path="url(#p101b6b7576)" style="fill: none; stroke: #d9d9d9; stroke-opacity: 0.7; stroke-width: 0.45; stroke-linecap: square"/>
     </g>
     <g id="line2d_11">
      <g>
       <use xlink:href="#m403732c2f7" x="41.288438" y="162.369378" style="fill: #2a2a2a; stroke: #2a2a2a; stroke-width: 0.8"/>
      </g>
     </g>
     <g id="text_10">
      <text style="font-size: 8px; font-family: 'STIX Two Text', 'Times New Roman', 'Times', 'STIXGeneral', serif; text-anchor: end; fill: #2a2a2a" x="34.788438" y="165.101253" transform="rotate(-0 34.788438 165.101253)">−2.0</text>
     </g>
    </g>
    <g id="ytick_3">
     <g id="line2d_12">
      <path d="M 41.288438 142.706222 
L 303.548438 142.706222 
" clip-path="url(#p101b6b7576)" style="fill: none; stroke: #d9d9d9; stroke-opacity: 0.7; stroke-width: 0.45; stroke-linecap: square"/>
     </g>
     <g id="line2d_13">
      <g>
       <use xlink:href="#m403732c2f7" x="41.288438" y="142.706222" style="fill: #2a2a2a; stroke: #2a2a2a; stroke-width: 0.8"/>
      </g>
     </g>
     <g id="text_11">
      <text style="font-size: 8px; font-family: 'STIX Two Text', 'Times New Roman', 'Times', 'STIXGeneral', serif; text-anchor: end; fill: #2a2a2a" x="34.788438" y="145.438097" transform="rotate(-0 34.788438 145.438097)">−1.5</text>
     </g>
    </g>
    <g id="ytick_4">
     <g id="line2d_14">
      <path d="M 41.288438 123.043066 
L 303.548438 123.043066 
" clip-path="url(#p101b6b7576)" style="fill: none; stroke: #d9d9d9; stroke-opacity: 0.7; stroke-width: 0.45; stroke-linecap: square"/>
     </g>
     <g id="line2d_15">
      <g>
       <use xlink:href="#m403732c2f7" x="41.288438" y="123.043066" style="fill: #2a2a2a; stroke: #2a2a2a; stroke-width: 0.8"/>
      </g>
     </g>
     <g id="text_12">
      <text style="font-size: 8px; font-family: 'STIX Two Text', 'Times New Roman', 'Times', 'STIXGeneral', serif; text-anchor: end; fill: #2a2a2a" x="34.788438" y="125.774941" transform="rotate(-0 34.788438 125.774941)">−1.0</text>
     </g>
    </g>
    <g id="ytick_5">
     <g id="line2d_16">
      <path d="M 41.288438 103.37991 
L 303.548438 103.37991 
" clip-path="url(#p101b6b7576)" style="fill: none; stroke: #d9d9d9; stroke-opacity: 0.7; stroke-width: 0.45; stroke-linecap: square"/>
     </g>
     <g id="line2d_17">
      <g>
       <use xlink:href="#m403732c2f7" x="41.288438" y="103.37991" style="fill: #2a2a2a; stroke: #2a2a2a; stroke-width: 0.8"/>
      </g>
     </g>
     <g id="text_13">
      <text style="font-size: 8px; font-family: 'STIX Two Text', 'Times New Roman', 'Times', 'STIXGeneral', serif; text-anchor: end; fill: #2a2a2a" x="34.788438" y="106.111785" transform="rotate(-0 34.788438 106.111785)">−0.5</text>
     </g>
    </g>
    <g id="ytick_6">
     <g id="line2d_18">
      <path d="M 41.288438 83.716754 
L 303.548438 83.716754 
" clip-path="url(#p101b6b7576)" style="fill: none; stroke: #d9d9d9; stroke-opacity: 0.7; stroke-width: 0.45; stroke-linecap: square"/>
     </g>
     <g id="line2d_19">
      <g>
       <use xlink:href="#m403732c2f7" x="41.288438" y="83.716754" style="fill: #2a2a2a; stroke: #2a2a2a; stroke-width: 0.8"/>
      </g>
     </g>
     <g id="text_14">
      <text style="font-size: 8px; font-family: 'STIX Two Text', 'Times New Roman', 'Times', 'STIXGeneral', serif; text-anchor: end; fill: #2a2a2a" x="34.788438" y="86.448629" transform="rotate(-0 34.788438 86.448629)">0.0</text>
     </g>
    </g>
    <g id="ytick_7">
     <g id="line2d_20">
      <path d="M 41.288438 64.053598 
L 303.548438 64.053598 
" clip-path="url(#p101b6b7576)" style="fill: none; stroke: #d9d9d9; stroke-opacity: 0.7; stroke-width: 0.45; stroke-linecap: square"/>
     </g>
     <g id="line2d_21">
      <g>
       <use xlink:href="#m403732c2f7" x="41.288438" y="64.053598" style="fill: #2a2a2a; stroke: #2a2a2a; stroke-width: 0.8"/>
      </g>
     </g>
     <g id="text_15">
      <text style="font-size: 8px; font-family: 'STIX Two Text', 'Times New Roman', 'Times', 'STIXGeneral', serif; text-anchor: end; fill: #2a2a2a" x="34.788438" y="66.785473" transform="rotate(-0 34.788438 66.785473)">0.5</text>
     </g>
    </g>
    <g id="ytick_8">
     <g id="line2d_22">
      <path d="M 41.288438 44.390442 
L 303.548438 44.390442 
" clip-path="url(#p101b6b7576)" style="fill: none; stroke: #d9d9d9; stroke-opacity: 0.7; stroke-width: 0.45; stroke-linecap: square"/>
     </g>
     <g id="line2d_23">
      <g>
       <use xlink:href="#m403732c2f7" x="41.288438" y="44.390442" style="fill: #2a2a2a; stroke: #2a2a2a; stroke-width: 0.8"/>
      </g>
     </g>
     <g id="text_16">
      <text style="font-size: 8px; font-family: 'STIX Two Text', 'Times New Roman', 'Times', 'STIXGeneral', serif; text-anchor: end; fill: #2a2a2a" x="34.788438" y="47.122317" transform="rotate(-0 34.788438 47.122317)">1.0</text>
     </g>
    </g>
    <g id="ytick_9">
     <g id="line2d_24">
      <path d="M 41.288438 24.727286 
L 303.548438 24.727286 
" clip-path="url(#p101b6b7576)" style="fill: none; stroke: #d9d9d9; stroke-opacity: 0.7; stroke-width: 0.45; stroke-linecap: square"/>
     </g>
     <g id="line2d_25">
      <g>
       <use xlink:href="#m403732c2f7" x="41.288438" y="24.727286" style="fill: #2a2a2a; stroke: #2a2a2a; stroke-width: 0.8"/>
      </g>
     </g>
     <g id="text_17">
      <text style="font-size: 8px; font-family: 'STIX Two Text', 'Times New Roman', 'Times', 'STIXGeneral', serif; text-anchor: end; fill: #2a2a2a" x="34.788438" y="27.459161" transform="rotate(-0 34.788438 27.459161)">1.5</text>
     </g>
    </g>
    <g id="text_18">
     <text style="font-size: 9px; font-family: 'STIX Two Text', 'Times New Roman', 'Times', 'STIXGeneral', serif; text-anchor: middle" x="13.346719" y="102.848203" transform="rotate(-90 13.346719 102.848203)">Mean safe-action logit-lens margin</text>
    </g>
   </g>
   <g id="line2d_26">
    <path d="M 53.209347 119.450759 
L 60.659915 97.707846 
L 68.110483 90.286895 
L 75.561051 93.753156 
L 83.011619 72.608961 
L 90.462187 80.108691 
L 97.912756 100.16574 
L 105.363324 100.583267 
L 112.813892 130.582185 
L 120.26446 149.800241 
L 127.715028 150.696841 
L 135.165597 156.484611 
L 142.616165 142.686527 
L 150.066733 141.637786 
L 157.517301 133.012507 
L 164.967869 135.720277 
L 172.418438 129.813341 
L 179.869006 102.187521 
L 187.319574 94.694127 
L 194.770142 71.24609 
L 202.22071 95.790447 
L 209.671278 111.823014 
L 217.121847 93.241095 
L 224.572415 96.191356 
L 232.022983 72.68774 
L 239.473551 89.546375 
L 246.924119 93.233217 
L 254.374688 109.114997 
L 261.825256 73.822153 
L 269.275824 57.940373 
L 276.726392 49.054139 
L 284.17696 75.523772 
L 291.627528 76.910277 
" clip-path="url(#p101b6b7576)" style="fill: none; stroke: #252525; stroke-width: 1.4; stroke-linecap: square"/>
    <defs>
     <path id="mc22bd3d099" d="M 0 1.9 
C 0.503886 1.9 0.987202 1.699804 1.343503 1.343503 
C 1.699804 0.987202 1.9 0.503886 1.9 0 
C 1.9 -0.503886 1.699804 -0.987202 1.343503 -1.343503 
C 0.987202 -1.699804 0.503886 -1.9 0 -1.9 
C -0.503886 -1.9 -0.987202 -1.699804 -1.343503 -1.343503 
C -1.699804 -0.987202 -1.9 -0.503886 -1.9 0 
C -1.9 0.503886 -1.699804 0.987202 -1.343503 1.343503 
C -0.987202 1.699804 -0.503886 1.9 0 1.9 
z
" style="stroke: #252525"/>
    </defs>
    <g clip-path="url(#p101b6b7576)">
     <use xlink:href="#mc22bd3d099" x="53.209347" y="119.450759" style="fill: #252525; stroke: #252525"/>
     <use xlink:href="#mc22bd3d099" x="83.011619" y="72.608961" style="fill: #252525; stroke: #252525"/>
     <use xlink:href="#mc22bd3d099" x="112.813892" y="130.582185" style="fill: #252525; stroke: #252525"/>
     <use xlink:href="#mc22bd3d099" x="142.616165" y="142.686527" style="fill: #252525; stroke: #252525"/>
     <use xlink:href="#mc22bd3d099" x="172.418438" y="129.813341" style="fill: #252525; stroke: #252525"/>
     <use xlink:href="#mc22bd3d099" x="202.22071" y="95.790447" style="fill: #252525; stroke: #252525"/>
     <use xlink:href="#mc22bd3d099" x="232.022983" y="72.68774" style="fill: #252525; stroke: #252525"/>
     <use xlink:href="#mc22bd3d099" x="261.825256" y="73.822153" style="fill: #252525; stroke: #252525"/>
     <use xlink:href="#mc22bd3d099" x="291.627528" y="76.910277" style="fill: #252525; stroke: #252525"/>
    </g>
   </g>
   <g id="line2d_27">
    <path d="M 53.209347 119.450759 
L 60.659915 97.723601 
L 68.110483 90.255383 
L 75.561051 93.847691 
L 83.011619 72.530183 
L 90.462187 80.155958 
L 97.912756 100.228763 
L 105.363324 100.370565 
L 112.813892 130.546734 
L 120.26446 149.80418 
L 127.715028 150.632218 
L 135.165597 156.358566 
L 142.616165 142.619565 
L 150.066733 141.777618 
L 157.517301 132.835255 
L 164.967869 135.624758 
L 172.418438 129.314464 
L 179.869006 101.813815 
L 187.319574 94.588672 
L 194.770142 71.403648 
L 202.22071 98.090599 
L 209.671278 120.172322 
L 217.121847 102.556673 
L 224.572415 105.105163 
L 232.022983 96.95157 
L 239.473551 107.760004 
L 246.924119 110.533013 
L 254.374688 126.288747 
L 261.825256 79.494217 
L 269.275824 68.906364 
L 276.726392 60.146176 
L 284.17696 92.918103 
L 291.627528 81.447928 
" clip-path="url(#p101b6b7576)" style="fill: none; stroke: #b85c38; stroke-width: 1.4; stroke-linecap: square"/>
    <defs>
     <path id="mf59c1e9e9e" d="M -1.9 1.9 
L 1.9 1.9 
L 1.9 -1.9 
L -1.9 -1.9 
z
" style="stroke: #b85c38; stroke-linejoin: miter"/>
    </defs>
    <g clip-path="url(#p101b6b7576)">
     <use xlink:href="#mf59c1e9e9e" x="53.209347" y="119.450759" style="fill: #b85c38; stroke: #b85c38; stroke-linejoin: miter"/>
     <use xlink:href="#mf59c1e9e9e" x="83.011619" y="72.530183" style="fill: #b85c38; stroke: #b85c38; stroke-linejoin: miter"/>
     <use xlink:href="#mf59c1e9e9e" x="112.813892" y="130.546734" style="fill: #b85c38; stroke: #b85c38; stroke-linejoin: miter"/>
     <use xlink:href="#mf59c1e9e9e" x="142.616165" y="142.619565" style="fill: #b85c38; stroke: #b85c38; stroke-linejoin: miter"/>
     <use xlink:href="#mf59c1e9e9e" x="172.418438" y="129.314464" style="fill: #b85c38; stroke: #b85c38; stroke-linejoin: miter"/>
     <use xlink:href="#mf59c1e9e9e" x="202.22071" y="98.090599" style="fill: #b85c38; stroke: #b85c38; stroke-linejoin: miter"/>
     <use xlink:href="#mf59c1e9e9e" x="232.022983" y="96.95157" style="fill: #b85c38; stroke: #b85c38; stroke-linejoin: miter"/>
     <use xlink:href="#mf59c1e9e9e" x="261.825256" y="79.494217" style="fill: #b85c38; stroke: #b85c38; stroke-linejoin: miter"/>
     <use xlink:href="#mf59c1e9e9e" x="291.627528" y="81.447928" style="fill: #b85c38; stroke: #b85c38; stroke-linejoin: miter"/>
    </g>
   </g>
   <g id="line2d_28">
    <path d="M 53.209347 119.450759 
L 60.659915 97.723601 
L 68.110483 90.239628 
L 75.561051 93.768912 
L 83.011619 72.593206 
L 90.462187 80.140202 
L 97.912756 100.27603 
L 105.363324 100.457221 
L 112.813892 130.692475 
L 120.26446 150.075967 
L 127.715028 150.851298 
L 135.165597 156.587024 
L 142.616165 142.741672 
L 150.066733 141.80716 
L 157.517301 133.028262 
L 164.967869 135.615649 
L 172.418438 129.723005 
L 179.869006 102.186413 
L 187.319574 94.754076 
L 194.770142 71.391831 
L 202.22071 94.04473 
L 209.671278 106.181993 
L 217.121847 87.01758 
L 224.572415 89.818162 
L 232.022983 56.711426 
L 239.473551 78.296781 
L 246.924119 82.267226 
L 254.374688 97.865403 
L 261.825256 69.725662 
L 269.275824 50.125529 
L 276.726392 40.356974 
L 284.17696 63.67546 
L 291.627528 74.263313 
" clip-path="url(#p101b6b7576)" style="fill: none; stroke: #287d8e; stroke-width: 1.4; stroke-linecap: square"/>
    <defs>
     <path id="m617220ac13" d="M 0 -1.9 
L -1.9 1.9 
L 1.9 1.9 
z
" style="stroke: #287d8e; stroke-linejoin: miter"/>
    </defs>
    <g clip-path="url(#p101b6b7576)">
     <use xlink:href="#m617220ac13" x="53.209347" y="119.450759" style="fill: #287d8e; stroke: #287d8e; stroke-linejoin: miter"/>
     <use xlink:href="#m617220ac13" x="83.011619" y="72.593206" style="fill: #287d8e; stroke: #287d8e; stroke-linejoin: miter"/>
     <use xlink:href="#m617220ac13" x="112.813892" y="130.692475" style="fill: #287d8e; stroke: #287d8e; stroke-linejoin: miter"/>
     <use xlink:href="#m617220ac13" x="142.616165" y="142.741672" style="fill: #287d8e; stroke: #287d8e; stroke-linejoin: miter"/>
     <use xlink:href="#m617220ac13" x="172.418438" y="129.723005" style="fill: #287d8e; stroke: #287d8e; stroke-linejoin: miter"/>
     <use xlink:href="#m617220ac13" x="202.22071" y="94.04473" style="fill: #287d8e; stroke: #287d8e; stroke-linejoin: miter"/>
     <use xlink:href="#m617220ac13" x="232.022983" y="56.711426" style="fill: #287d8e; stroke: #287d8e; stroke-linejoin: miter"/>
     <use xlink:href="#m617220ac13" x="261.825256" y="69.725662" style="fill: #287d8e; stroke: #287d8e; stroke-linejoin: miter"/>
     <use xlink:href="#m617220ac13" x="291.627528" y="74.263313" style="fill: #287d8e; stroke: #287d8e; stroke-linejoin: miter"/>
    </g>
   </g>
   <g id="line2d_29">
    <path d="M 41.288438 83.716754 
L 303.548438 83.716754 
" clip-path="url(#p101b6b7576)" style="fill: none; stroke-dasharray: 2.4,1.6; stroke-dashoffset: 0; stroke: #2a2a2a; stroke-width: 0.8"/>
   </g>
   <g id="patch_3">
    <path d="M 41.288438 186.008203 
L 41.288438 19.688203 
" style="fill: none; stroke: #2a2a2a; stroke-width: 0.85; stroke-linejoin: miter; stroke-linecap: square"/>
   </g>
   <g id="patch_4">
    <path d="M 41.288438 186.008203 
L 303.548438 186.008203 
" style="fill: none; stroke: #2a2a2a; stroke-width: 0.85; stroke-linejoin: miter; stroke-linecap: square"/>
   </g>
   <g id="text_19">
    <text style="font-size: 9.5px; font-family: 'STIX Two Text', 'Times New Roman', 'Times', 'STIXGeneral', serif; text-anchor: middle" x="172.418438" y="13.688203" transform="rotate(-0 172.418438 13.688203)">Layerwise safe evidence: game_safe_ut_harmful</text>
   </g>
   <g id="legend_1">
    <g id="line2d_30">
     <path d="M 48.488438 29.688203 
L 56.488438 29.688203 
L 64.488438 29.688203 
" style="fill: none; stroke: #252525; stroke-width: 1.4; stroke-linecap: square"/>
     <g>
      <use xlink:href="#mc22bd3d099" x="56.488438" y="29.688203" style="fill: #252525; stroke: #252525"/>
     </g>
    </g>
    <g id="text_20">
     <text style="font-size: 8px; font-family: 'STIX Two Text', 'Times New Roman', 'Times', 'STIXGeneral', serif; text-anchor: start" x="70.888438" y="32.488203" transform="rotate(-0 70.888438 32.488203)">Base</text>
    </g>
    <g id="line2d_31">
     <path d="M 48.488438 41.024453 
L 56.488438 41.024453 
L 64.488438 41.024453 
" style="fill: none; stroke: #b85c38; stroke-width: 1.4; stroke-linecap: square"/>
     <g>
      <use xlink:href="#mf59c1e9e9e" x="56.488438" y="41.024453" style="fill: #b85c38; stroke: #b85c38; stroke-linejoin: miter"/>
     </g>
    </g>
    <g id="text_21">
     <text style="font-size: 8px; font-family: 'STIX Two Text', 'Times New Roman', 'Times', 'STIXGeneral', serif; text-anchor: start" x="70.888438" y="43.824453" transform="rotate(-0 70.888438 43.824453)">UT</text>
    </g>
    <g id="line2d_32">
     <path d="M 48.488438 52.360703 
L 56.488438 52.360703 
L 64.488438 52.360703 
" style="fill: none; stroke: #287d8e; stroke-width: 1.4; stroke-linecap: square"/>
     <g>
      <use xlink:href="#m617220ac13" x="56.488438" y="52.360703" style="fill: #287d8e; stroke: #287d8e; stroke-linejoin: miter"/>
     </g>
    </g>
    <g id="text_22">
     <text style="font-size: 8px; font-family: 'STIX Two Text', 'Times New Roman', 'Times', 'STIXGeneral', serif; text-anchor: start" x="70.888438" y="55.160703" transform="rotate(-0 70.888438 55.160703)">GAME</text>
    </g>
   </g>
  </g>
 </g>
 <defs>
  <clipPath id="p101b6b7576">
   <rect x="41.288438" y="19.688203" width="262.26" height="166.32"/>
  </clipPath>
 </defs>
</svg>
