<?xml version="1.0" encoding="utf-8" standalone="no"?>
<!DOCTYPE svg PUBLIC "-//W3C//DTD SVG 1.1//EN"
  "http://www.w3.org/Graphics/SVG/1.1/DTD/svg11.dtd">
<svg xmlns:xlink="http://www.w3.org/1999/xlink" width="454.522656pt" height="452.167281pt" viewBox="0 0 454.522656 452.167281" xmlns="http://www.w3.org/2000/svg" version="1.1">
 <metadata>
  <rdf:RDF xmlns:dc="http://purl.org/dc/elements/1.1/" xmlns:cc="http://creativecommons.org/ns#" xmlns:rdf="http://www.w3.org/1999/02/22-rdf-syntax-ns#">
   <cc:Work>
    <dc:type rdf:resource="http://purl.org/dc/dcmitype/StillImage"/>
    <dc:date>2026-05-04T13:25:51.650706</dc:date>
    <dc:format>image/svg+xml</dc:format>
    <dc:creator>
     <cc:Agent>
      <dc:title>Matplotlib v3.10.9, https://matplotlib.org/</dc:title>
     </cc:Agent>
    </dc:creator>
   </cc:Work>
  </rdf:RDF>
 </metadata>
 <defs>
  <style type="text/css">*{stroke-linejoin: round; stroke-linecap: butt}</style>
 </defs>
 <g id="figure_1">
  <g id="patch_1">
   <path d="M 0 452.167281
L 454.522656 452.167281
L 454.522656 0
L 0 0
z
" style="fill: #ffffff"/>
  </g>
  <g id="axes_1">
   <g id="patch_2">
    <path d="M 34.402656 186.270452
L 219.568576 186.270452
L 219.568576 61.664
L 34.402656 61.664
z
" style="fill: #ffffff"/>
   </g>
   <g id="FillBetweenPolyCollection_1">
    <defs>
     <path id="mbd285efcf0" d="M 42.338339 -338.477092
L 42.338339 -331.764575
L 47.628793 -325.026088
L 52.919248 -322.644692
L 58.209703 -323.827424
L 63.500158 -315.550651
L 68.790613 -319.512185
L 74.081068 -326.124763
L 79.371522 -326.071872
L 84.661977 -334.749735
L 89.952432 -340.415419
L 95.242887 -340.800923
L 100.533342 -342.708862
L 105.823797 -338.082894
L 111.114251 -338.216077
L 116.404706 -336.300993
L 121.695161 -337.714595
L 126.985616 -336.397411
L 132.276071 -326.992268
L 137.566526 -323.67065
L 142.85698 -313.701526
L 148.147435 -327.416605
L 153.43789 -342.426956
L 158.728345 -335.814651
L 164.0188 -337.97513
L 169.309255 -344.348639
L 174.599709 -342.333724
L 179.890164 -342.466844
L 185.180619 -347.982445
L 190.471074 -326.742174
L 195.761529 -320.480955
L 201.051984 -318.858963
L 206.342438 -337.997627
L 211.632893 -324.189021
L 211.632893 -333.011186
L 211.632893 -333.011186
L 206.342438 -366.461894
L 201.051984 -341.122143
L 195.761529 -341.649755
L 190.471074 -343.507584
L 185.180619 -370.364219
L 179.890164 -363.912911
L 174.599709 -364.278609
L 169.309255 -373.705634
L 164.0188 -352.081104
L 158.728345 -349.773405
L 153.43789 -356.612106
L 148.147435 -332.212121
L 142.85698 -317.525782
L 137.566526 -326.373028
L 132.276071 -330.678617
L 126.985616 -345.408589
L 121.695161 -347.647307
L 116.404706 -345.599689
L 111.114251 -348.641536
L 105.823797 -348.824594
L 100.533342 -356.117476
L 95.242887 -352.964727
L 89.952432 -352.448229
L 84.661977 -343.40616
L 79.371522 -329.391271
L 74.081068 -329.421188
L 68.790613 -320.37727
L 63.500158 -317.484495
L 58.209703 -325.935074
L 52.919248 -323.91138
L 47.628793 -327.629186
L 42.338339 -338.477092
z
"/>
    </defs>
    <g clip-path="url(#p516a62755e)">
     <use xlink:href="#mbd285efcf0" x="0" y="452.167281" style="fill: #252525; fill-opacity: 0.14"/>
    </g>
   </g>
   <g id="FillBetweenPolyCollection_2">
    <defs>
     <path id="m0ff986ad9c" d="M 42.338339 -338.477092
L 42.338339 -331.764575
L 47.628793 -325.028085
L 52.919248 -322.638749
L 58.209703 -323.803451
L 63.500158 -315.61453
L 68.790613 -319.524221
L 74.081068 -326.118869
L 79.371522 -326.031966
L 84.661977 -334.687192
L 89.952432 -340.435871
L 95.242887 -340.784474
L 100.533342 -342.702369
L 105.823797 -338.098483
L 111.114251 -338.182185
L 116.404706 -336.283769
L 121.695161 -337.771727
L 126.985616 -336.395993
L 132.276071 -326.989375
L 137.566526 -323.782202
L 142.85698 -313.922306
L 148.147435 -328.756394
L 153.43789 -346.834415
L 158.728345 -340.316054
L 164.0188 -342.316059
L 169.309255 -353.560731
L 174.599709 -349.604425
L 179.890164 -349.742059
L 185.180619 -355.533627
L 190.471074 -330.993135
L 195.761529 -326.506437
L 201.051984 -325.083823
L 206.342438 -346.931667
L 211.632893 -326.778134
L 211.632893 -335.408913
L 211.632893 -335.408913
L 206.342438 -374.564861
L 201.051984 -346.699925
L 195.761529 -346.939658
L 190.471074 -347.523507
L 185.180619 -377.27384
L 179.890164 -370.541371
L 174.599709 -370.878976
L 169.309255 -381.909733
L 164.0188 -356.137333
L 158.728345 -353.943927
L 153.43789 -360.81688
L 148.147435 -333.384354
L 142.85698 -317.723981
L 137.566526 -326.470962
L 132.276071 -330.680088
L 126.985616 -345.387573
L 121.695161 -347.722362
L 116.404706 -345.595768
L 111.114251 -348.63192
L 105.823797 -348.844128
L 100.533342 -356.107
L 95.242887 -352.942282
L 89.952432 -352.469093
L 84.661977 -343.339709
L 79.371522 -329.335309
L 74.081068 -329.417192
L 68.790613 -320.389307
L 63.500158 -317.528496
L 58.209703 -325.931079
L 52.919248 -323.901391
L 47.628793 -327.627238
L 42.338339 -338.477092
z
"/>
    </defs>
    <g clip-path="url(#p516a62755e)">
     <use xlink:href="#m0ff986ad9c" x="0" y="452.167281" style="fill: #b85c38; fill-opacity: 0.14"/>
    </g>
   </g>
   <g id="FillBetweenPolyCollection_3">
    <defs>
     <path id="ma25a1edb5f" d="M 42.338339 -338.477092
L 42.338339 -331.764575
L 47.628793 -325.026088
L 52.919248 -322.64674
L 58.209703 -323.825426
L 63.500158 -315.568631
L 68.790613 -319.526219
L 74.081068 -326.112776
L 79.371522 -326.033964
L 84.661977 -334.676754
L 89.952432 -340.400947
L 95.242887 -340.779234
L 100.533342 -342.645807
L 105.823797 -338.052503
L 111.114251 -338.188526
L 116.404706 -336.213834
L 121.695161 -337.688664
L 126.985616 -336.3205
L 132.276071 -326.956867
L 137.566526 -323.708221
L 142.85698 -313.783115
L 148.147435 -326.832977
L 153.43789 -340.436136
L 158.728345 -333.677261
L 164.0188 -335.990158
L 169.309255 -339.899761
L 174.599709 -338.718535
L 179.890164 -338.931436
L 185.180619 -344.274529
L 190.471074 -324.752093
L 195.761529 -317.572397
L 201.051984 -315.806366
L 206.342438 -333.410341
L 211.632893 -322.942411
L 211.632893 -331.812522
L 211.632893 -331.812522
L 206.342438 -362.11474
L 201.051984 -338.365616
L 195.761529 -338.940575
L 190.471074 -341.557758
L 185.180619 -367.001592
L 179.890164 -360.629796
L 174.599709 -360.89761
L 169.309255 -369.615734
L 164.0188 -350.160302
L 158.728345 -347.858846
L 153.43789 -354.633073
L 148.147435 -331.725049
L 142.85698 -317.616098
L 137.566526 -326.427968
L 132.276071 -330.667577
L 126.985616 -345.378793
L 121.695161 -347.617131
L 116.404706 -345.518792
L 111.114251 -348.612568
L 105.823797 -348.796101
L 100.533342 -356.043646
L 95.242887 -352.929279
L 89.952432 -352.453698
L 84.661977 -343.340707
L 79.371522 -329.356285
L 74.081068 -329.40121
L 68.790613 -320.393252
L 63.500158 -317.494484
L 58.209703 -325.943065
L 52.919248 -323.909383
L 47.628793 -327.629186
L 42.338339 -338.477092
z
"/>
    </defs>
    <g clip-path="url(#p516a62755e)">
     <use xlink:href="#ma25a1edb5f" x="0" y="452.167281" style="fill: #287d8e; fill-opacity: 0.14"/>
    </g>
   </g>
   <g id="matplotlib.axis_1">
    <g id="xtick_1">
     <g id="line2d_1">
      <defs>
       <path id="m981beb3dd0" d="M 0 0
L 0 3
" style="stroke: #2a2a2a; stroke-width: 0.8"/>
      </defs>
      <g>
       <use xlink:href="#m981beb3dd0" x="42.338339" y="186.270452" style="fill: #2a2a2a; stroke: #2a2a2a; stroke-width: 0.8"/>
      </g>
     </g>
     <g id="text_1">
      <text style="font-size: 8px; font-family: 'STIX Two Text', 'Times New Roman', 'Times', 'STIXGeneral', serif; text-anchor: middle; fill: #2a2a2a" x="42.338339" y="198.325452" transform="rotate(-0 42.338339 198.325452)">0</text>
     </g>
    </g>
    <g id="xtick_2">
     <g id="line2d_2">
      <g>
       <use xlink:href="#m981beb3dd0" x="95.242887" y="186.270452" style="fill: #2a2a2a; stroke: #2a2a2a; stroke-width: 0.8"/>
      </g>
     </g>
     <g id="text_2">
      <text style="font-size: 8px; font-family: 'STIX Two Text', 'Times New Roman', 'Times', 'STIXGeneral', serif; text-anchor: middle; fill: #2a2a2a" x="95.242887" y="198.325452" transform="rotate(-0 95.242887 198.325452)">10</text>
     </g>
    </g>
    <g id="xtick_3">
     <g id="line2d_3">
      <g>
       <use xlink:href="#m981beb3dd0" x="148.147435" y="186.270452" style="fill: #2a2a2a; stroke: #2a2a2a; stroke-width: 0.8"/>
      </g>
     </g>
     <g id="text_3">
      <text style="font-size: 8px; font-family: 'STIX Two Text', 'Times New Roman', 'Times', 'STIXGeneral', serif; text-anchor: middle; fill: #2a2a2a" x="148.147435" y="198.325452" transform="rotate(-0 148.147435 198.325452)">20</text>
     </g>
    </g>
    <g id="xtick_4">
     <g id="line2d_4">
      <g>
       <use xlink:href="#m981beb3dd0" x="201.051984" y="186.270452" style="fill: #2a2a2a; stroke: #2a2a2a; stroke-width: 0.8"/>
      </g>
     </g>
     <g id="text_4">
      <text style="font-size: 8px; font-family: 'STIX Two Text', 'Times New Roman', 'Times', 'STIXGeneral', serif; text-anchor: middle; fill: #2a2a2a" x="201.051984" y="198.325452" transform="rotate(-0 201.051984 198.325452)">30</text>
     </g>
    </g>
   </g>
   <g id="matplotlib.axis_2">
    <g id="ytick_1">
     <g id="line2d_5">
      <path d="M 34.402656 169.835597
L 219.568576 169.835597
" clip-path="url(#p516a62755e)" style="fill: none; stroke: #d9d9d9; stroke-opacity: 0.7; stroke-width: 0.45; stroke-linecap: square"/>
     </g>
     <g id="line2d_6">
      <defs>
       <path id="m534f3453c7" d="M 0 0
L -3 0
" style="stroke: #2a2a2a; stroke-width: 0.8"/>
      </defs>
      <g>
       <use xlink:href="#m534f3453c7" x="34.402656" y="169.835597" style="fill: #2a2a2a; stroke: #2a2a2a; stroke-width: 0.8"/>
      </g>
     </g>
     <g id="text_5">
      <text style="font-size: 8px; font-family: 'STIX Two Text', 'Times New Roman', 'Times', 'STIXGeneral', serif; text-anchor: end; fill: #2a2a2a" x="27.902656" y="172.613097" transform="rotate(-0 27.902656 172.613097)">−2</text>
     </g>
    </g>
    <g id="ytick_2">
     <g id="line2d_7">
      <path d="M 34.402656 150.656978
L 219.568576 150.656978
" clip-path="url(#p516a62755e)" style="fill: none; stroke: #d9d9d9; stroke-opacity: 0.7; stroke-width: 0.45; stroke-linecap: square"/>
     </g>
     <g id="line2d_8">
      <g>
       <use xlink:href="#m534f3453c7" x="34.402656" y="150.656978" style="fill: #2a2a2a; stroke: #2a2a2a; stroke-width: 0.8"/>
      </g>
     </g>
     <g id="text_6">
      <text style="font-size: 8px; font-family: 'STIX Two Text', 'Times New Roman', 'Times', 'STIXGeneral', serif; text-anchor: end; fill: #2a2a2a" x="27.902656" y="153.434478" transform="rotate(-0 27.902656 153.434478)">−1</text>
     </g>
    </g>
    <g id="ytick_3">
     <g id="line2d_9">
      <path d="M 34.402656 131.478358
L 219.568576 131.478358
" clip-path="url(#p516a62755e)" style="fill: none; stroke: #d9d9d9; stroke-opacity: 0.7; stroke-width: 0.45; stroke-linecap: square"/>
     </g>
     <g id="line2d_10">
      <g>
       <use xlink:href="#m534f3453c7" x="34.402656" y="131.478358" style="fill: #2a2a2a; stroke: #2a2a2a; stroke-width: 0.8"/>
      </g>
     </g>
     <g id="text_7">
      <text style="font-size: 8px; font-family: 'STIX Two Text', 'Times New Roman', 'Times', 'STIXGeneral', serif; text-anchor: end; fill: #2a2a2a" x="27.902656" y="134.255858" transform="rotate(-0 27.902656 134.255858)">0</text>
     </g>
    </g>
    <g id="ytick_4">
     <g id="line2d_11">
      <path d="M 34.402656 112.299739
L 219.568576 112.299739
" clip-path="url(#p516a62755e)" style="fill: none; stroke: #d9d9d9; stroke-opacity: 0.7; stroke-width: 0.45; stroke-linecap: square"/>
     </g>
     <g id="line2d_12">
      <g>
       <use xlink:href="#m534f3453c7" x="34.402656" y="112.299739" style="fill: #2a2a2a; stroke: #2a2a2a; stroke-width: 0.8"/>
      </g>
     </g>
     <g id="text_8">
      <text style="font-size: 8px; font-family: 'STIX Two Text', 'Times New Roman', 'Times', 'STIXGeneral', serif; text-anchor: end; fill: #2a2a2a" x="27.902656" y="115.077239" transform="rotate(-0 27.902656 115.077239)">1</text>
     </g>
    </g>
    <g id="ytick_5">
     <g id="line2d_13">
      <path d="M 34.402656 93.12112
L 219.568576 93.12112
" clip-path="url(#p516a62755e)" style="fill: none; stroke: #d9d9d9; stroke-opacity: 0.7; stroke-width: 0.45; stroke-linecap: square"/>
     </g>
     <g id="line2d_14">
      <g>
       <use xlink:href="#m534f3453c7" x="34.402656" y="93.12112" style="fill: #2a2a2a; stroke: #2a2a2a; stroke-width: 0.8"/>
      </g>
     </g>
     <g id="text_9">
      <text style="font-size: 8px; font-family: 'STIX Two Text', 'Times New Roman', 'Times', 'STIXGeneral', serif; text-anchor: end; fill: #2a2a2a" x="27.902656" y="95.89862" transform="rotate(-0 27.902656 95.89862)">2</text>
     </g>
    </g>
    <g id="ytick_6">
     <g id="line2d_15">
      <path d="M 34.402656 73.942501
L 219.568576 73.942501
" clip-path="url(#p516a62755e)" style="fill: none; stroke: #d9d9d9; stroke-opacity: 0.7; stroke-width: 0.45; stroke-linecap: square"/>
     </g>
     <g id="line2d_16">
      <g>
       <use xlink:href="#m534f3453c7" x="34.402656" y="73.942501" style="fill: #2a2a2a; stroke: #2a2a2a; stroke-width: 0.8"/>
      </g>
     </g>
     <g id="text_10">
      <text style="font-size: 8px; font-family: 'STIX Two Text', 'Times New Roman', 'Times', 'STIXGeneral', serif; text-anchor: end; fill: #2a2a2a" x="27.902656" y="76.720001" transform="rotate(-0 27.902656 76.720001)">3</text>
     </g>
    </g>
    <g id="text_11">
     <text style="font-size: 9px; font-family: 'STIX Two Text', 'Times New Roman', 'Times', 'STIXGeneral', serif; text-anchor: middle" x="13.449375" y="123.967226" transform="rotate(-90 13.449375 123.967226)">Safe-action margin</text>
    </g>
   </g>
   <g id="line2d_17">
    <path d="M 42.338339 117.046448
L 47.628793 125.812675
L 52.919248 128.883252
L 58.209703 127.265056
L 63.500158 135.663693
L 68.790613 132.219532
L 74.081068 124.354301
L 79.371522 124.412236
L 84.661977 112.977983
L 89.952432 105.55326
L 95.242887 105.122378
L 100.533342 102.573582
L 105.823797 108.593871
L 111.114251 108.590624
L 116.404706 111.122052
L 121.695161 109.38628
L 126.985616 111.180158
L 132.276071 123.292672
L 137.566526 127.13193
L 142.85698 136.582262
L 148.147435 122.287351
L 153.43789 102.464834
L 158.728345 109.149507
L 164.0188 106.978234
L 169.309255 92.823265
L 174.599709 98.625733
L 179.890164 98.737858
L 185.180619 92.700589
L 190.471074 116.922586
L 195.761529 120.87418
L 201.051984 122.024897
L 206.342438 99.625868
L 211.632893 123.439321
" clip-path="url(#p516a62755e)" style="fill: none; stroke: #252525; stroke-width: 1.25; stroke-linecap: square"/>
    <defs>
     <path id="m40ba5eb1a4" d="M 0 1.75
C 0.464105 1.75 0.909265 1.565609 1.237437 1.237437
C 1.565609 0.909265 1.75 0.464105 1.75 0
C 1.75 -0.464105 1.565609 -0.909265 1.237437 -1.237437
C 0.909265 -1.565609 0.464105 -1.75 0 -1.75
C -0.464105 -1.75 -0.909265 -1.565609 -1.237437 -1.237437
C -1.565609 -0.909265 -1.75 -0.464105 -1.75 0
C -1.75 0.464105 -1.565609 0.909265 -1.237437 1.237437
C -0.909265 1.565609 -0.464105 1.75 0 1.75
z
" style="stroke: #252525"/>
    </defs>
    <g clip-path="url(#p516a62755e)">
     <use xlink:href="#m40ba5eb1a4" x="42.338339" y="117.046448" style="fill: #252525; stroke: #252525"/>
     <use xlink:href="#m40ba5eb1a4" x="68.790613" y="132.219532" style="fill: #252525; stroke: #252525"/>
     <use xlink:href="#m40ba5eb1a4" x="95.242887" y="105.122378" style="fill: #252525; stroke: #252525"/>
     <use xlink:href="#m40ba5eb1a4" x="121.695161" y="109.38628" style="fill: #252525; stroke: #252525"/>
     <use xlink:href="#m40ba5eb1a4" x="148.147435" y="122.287351" style="fill: #252525; stroke: #252525"/>
     <use xlink:href="#m40ba5eb1a4" x="174.599709" y="98.625733" style="fill: #252525; stroke: #252525"/>
     <use xlink:href="#m40ba5eb1a4" x="201.051984" y="122.024897" style="fill: #252525; stroke: #252525"/>
    </g>
   </g>
   <g id="line2d_18">
    <path d="M 42.338339 117.046448
L 47.628793 125.812675
L 52.919248 128.891243
L 58.209703 127.281038
L 63.500158 135.61175
L 68.790613 132.207546
L 74.081068 124.362292
L 79.371522 124.458185
L 84.661977 113.040913
L 89.952432 105.53528
L 95.242887 105.136149
L 100.533342 102.576579
L 105.823797 108.560658
L 111.114251 108.600988
L 116.404706 111.129044
L 121.695161 109.310333
L 126.985616 111.19535
L 132.276071 123.290241
L 137.566526 127.028944
L 142.85698 136.37568
L 148.147435 121.019604
L 153.43789 98.182895
L 158.728345 104.807769
L 164.0188 102.770082
L 169.309255 84.155141
L 174.599709 91.686469
L 179.890164 91.754643
L 185.180619 85.463657
L 190.471074 112.799182
L 195.761529 115.208497
L 201.051984 116.063543
L 206.342438 91.091383
L 211.632893 120.962082
" clip-path="url(#p516a62755e)" style="fill: none; stroke: #b85c38; stroke-width: 1.25; stroke-linecap: square"/>
    <defs>
     <path id="m641ad6da60" d="M -1.75 1.75
L 1.75 1.75
L 1.75 -1.75
L -1.75 -1.75
z
" style="stroke: #b85c38; stroke-linejoin: miter"/>
    </defs>
    <g clip-path="url(#p516a62755e)">
     <use xlink:href="#m641ad6da60" x="42.338339" y="117.046448" style="fill: #b85c38; stroke: #b85c38; stroke-linejoin: miter"/>
     <use xlink:href="#m641ad6da60" x="68.790613" y="132.207546" style="fill: #b85c38; stroke: #b85c38; stroke-linejoin: miter"/>
     <use xlink:href="#m641ad6da60" x="95.242887" y="105.136149" style="fill: #b85c38; stroke: #b85c38; stroke-linejoin: miter"/>
     <use xlink:href="#m641ad6da60" x="121.695161" y="109.310333" style="fill: #b85c38; stroke: #b85c38; stroke-linejoin: miter"/>
     <use xlink:href="#m641ad6da60" x="148.147435" y="121.019604" style="fill: #b85c38; stroke: #b85c38; stroke-linejoin: miter"/>
     <use xlink:href="#m641ad6da60" x="174.599709" y="91.686469" style="fill: #b85c38; stroke: #b85c38; stroke-linejoin: miter"/>
     <use xlink:href="#m641ad6da60" x="201.051984" y="116.063543" style="fill: #b85c38; stroke: #b85c38; stroke-linejoin: miter"/>
    </g>
   </g>
   <g id="line2d_19">
    <path d="M 42.338339 117.046448
L 47.628793 125.812675
L 52.919248 128.883252
L 58.209703 127.263058
L 63.500158 135.649708
L 68.790613 132.20355
L 74.081068 124.372281
L 79.371522 124.4442
L 84.661977 113.042411
L 89.952432 105.557256
L 95.242887 105.154869
L 100.533342 102.643005
L 105.823797 108.613848
L 111.114251 108.623962
L 116.404706 111.19622
L 121.695161 109.411412
L 126.985616 111.222282
L 132.276071 123.316698
L 137.566526 127.08289
L 142.85698 136.501524
L 148.147435 122.829108
L 153.43789 104.487819
L 158.728345 111.209346
L 164.0188 108.955031
L 169.309255 97.196514
L 174.599709 102.120088
L 179.890164 102.182019
L 185.180619 96.262618
L 190.471074 118.932345
L 195.761529 123.703027
L 201.051984 124.909681
L 206.342438 104.10088
L 211.632893 124.685931
" clip-path="url(#p516a62755e)" style="fill: none; stroke: #287d8e; stroke-width: 1.25; stroke-linecap: square"/>
    <defs>
     <path id="mb53c1e313b" d="M 0 -1.75
L -1.75 1.75
L 1.75 1.75
z
" style="stroke: #287d8e; stroke-linejoin: miter"/>
    </defs>
    <g clip-path="url(#p516a62755e)">
     <use xlink:href="#mb53c1e313b" x="42.338339" y="117.046448" style="fill: #287d8e; stroke: #287d8e; stroke-linejoin: miter"/>
     <use xlink:href="#mb53c1e313b" x="68.790613" y="132.20355" style="fill: #287d8e; stroke: #287d8e; stroke-linejoin: miter"/>
     <use xlink:href="#mb53c1e313b" x="95.242887" y="105.154869" style="fill: #287d8e; stroke: #287d8e; stroke-linejoin: miter"/>
     <use xlink:href="#mb53c1e313b" x="121.695161" y="109.411412" style="fill: #287d8e; stroke: #287d8e; stroke-linejoin: miter"/>
     <use xlink:href="#mb53c1e313b" x="148.147435" y="122.829108" style="fill: #287d8e; stroke: #287d8e; stroke-linejoin: miter"/>
     <use xlink:href="#mb53c1e313b" x="174.599709" y="102.120088" style="fill: #287d8e; stroke: #287d8e; stroke-linejoin: miter"/>
     <use xlink:href="#mb53c1e313b" x="201.051984" y="124.909681" style="fill: #287d8e; stroke: #287d8e; stroke-linejoin: miter"/>
    </g>
   </g>
   <g id="line2d_20">
    <path d="M 34.402656 131.478358
L 219.568576 131.478358
" clip-path="url(#p516a62755e)" style="fill: none; stroke-dasharray: 2.25,1.5; stroke-dashoffset: 0; stroke: #2a2a2a; stroke-width: 0.75"/>
   </g>
   <g id="patch_3">
    <path d="M 34.402656 186.270452
L 34.402656 61.664
" style="fill: none; stroke: #2a2a2a; stroke-width: 0.85; stroke-linejoin: miter; stroke-linecap: square"/>
   </g>
   <g id="patch_4">
    <path d="M 34.402656 186.270452
L 219.568576 186.270452
" style="fill: none; stroke: #2a2a2a; stroke-width: 0.85; stroke-linejoin: miter; stroke-linecap: square"/>
   </g>
   <g id="text_12">
    <g id="patch_5">
     <path d="M 38.757634 79.101325
L 48.379509 79.101325
L 48.379509 67.940387
L 38.757634 67.940387
z
" style="fill: #ffffff; opacity: 0.9"/>
    </g>
    <text style="font-weight: 700; font-size: 10px; font-family: 'STIX Two Text', 'Times New Roman', 'Times', 'STIXGeneral', serif; text-anchor: start" x="39.957634" y="75.762262" transform="rotate(-0 39.957634 75.762262)">A</text>
   </g>
   <g id="text_13">
    <text style="font-size: 9.5px; font-family: 'STIX Two Text', 'Times New Roman', 'Times', 'STIXGeneral', serif; text-anchor: middle" x="126.985616" y="55.664" transform="rotate(-0 126.985616 55.664)">UT-favored margin shifts</text>
   </g>
  </g>
  <g id="axes_2">
   <g id="patch_6">
    <path d="M 262.156737 186.270452
L 447.322656 186.270452
L 447.322656 61.664
L 262.156737 61.664
z
" style="fill: #ffffff"/>
   </g>
   <g id="FillBetweenPolyCollection_4">
    <defs>
     <path id="m33686649f3" d="M 270.092419 -313.305154
L 270.092419 -305.921386
L 275.382874 -314.991275
L 280.673329 -318.047867
L 285.963784 -316.597484
L 291.254239 -322.872439
L 296.544693 -321.046524
L 301.835148 -314.108209
L 307.125603 -314.0713
L 312.416058 -301.482797
L 317.706513 -293.336478
L 322.996968 -293.03348
L 328.287422 -290.751748
L 333.577877 -296.61325
L 338.868332 -297.11344
L 344.158787 -300.117993
L 349.449242 -298.68072
L 354.739697 -301.868182
L 360.030151 -313.34631
L 365.320606 -315.519701
L 370.611061 -323.024294
L 375.901516 -316.852684
L 381.191971 -303.841273
L 386.482426 -311.371046
L 391.77288 -309.26218
L 397.063335 -312.597231
L 402.35379 -307.421579
L 407.644245 -305.905604
L 412.9347 -300.936493
L 418.225155 -318.171629
L 423.515609 -322.462346
L 428.806064 -324.636522
L 434.096519 -310.452335
L 439.386974 -319.346419
L 439.386974 -329.15948
L 439.386974 -329.15948
L 434.096519 -342.232905
L 428.806064 -346.771845
L 423.515609 -343.559626
L 418.225155 -336.875378
L 412.9347 -329.595294
L 407.644245 -332.602766
L 402.35379 -334.680852
L 397.063335 -347.668408
L 391.77288 -328.4286
L 386.482426 -329.57921
L 381.191971 -323.531203
L 375.901516 -322.575092
L 370.611061 -326.201814
L 365.320606 -318.612494
L 360.030151 -317.315657
L 354.739697 -311.323527
L 349.449242 -309.442609
L 344.158787 -310.397165
L 338.868332 -308.886868
L 333.577877 -308.561056
L 328.287422 -305.553434
L 322.996968 -306.566427
L 317.706513 -306.797085
L 312.416058 -311.006242
L 307.125603 -317.458549
L 301.835148 -317.332714
L 296.544693 -322.021437
L 291.254239 -325.21193
L 285.963784 -318.657188
L 280.673329 -319.404355
L 275.382874 -317.836153
L 270.092419 -313.305154
z
"/>
    </defs>
    <g clip-path="url(#p1a7eaaf2d7)">
     <use xlink:href="#m33686649f3" x="0" y="452.167281" style="fill: #252525; fill-opacity: 0.14"/>
    </g>
   </g>
   <g id="FillBetweenPolyCollection_5">
    <defs>
     <path id="m4dc9ba5860" d="M 270.092419 -313.305154
L 270.092419 -305.921386
L 275.382874 -314.987229
L 280.673329 -318.05381
L 285.963784 -316.599432
L 291.254239 -322.890419
L 296.544693 -321.002573
L 301.835148 -314.118198
L 307.125603 -314.091278
L 312.416058 -301.494309
L 317.706513 -293.354352
L 322.996968 -293.010218
L 328.287422 -290.726738
L 333.577877 -296.55278
L 338.868332 -297.07222
L 344.158787 -300.084368
L 349.449242 -298.617982
L 354.739697 -301.825512
L 360.030151 -313.29592
L 365.320606 -315.480405
L 370.611061 -322.991596
L 375.901516 -316.398114
L 381.191971 -302.193778
L 386.482426 -309.687674
L 391.77288 -307.585341
L 397.063335 -309.76919
L 402.35379 -305.023187
L 407.644245 -303.534797
L 412.9347 -298.559768
L 418.225155 -316.604976
L 423.515609 -320.648568
L 428.806064 -322.678505
L 434.096519 -307.735364
L 439.386974 -318.562893
L 439.386974 -328.488228
L 439.386974 -328.488228
L 434.096519 -339.747875
L 428.806064 -344.957867
L 423.515609 -341.853528
L 418.225155 -335.548357
L 412.9347 -327.437624
L 407.644245 -330.587113
L 402.35379 -332.530209
L 397.063335 -345.248306
L 391.77288 -326.995963
L 386.482426 -328.113571
L 381.191971 -322.146736
L 375.901516 -322.208865
L 370.611061 -326.172472
L 365.320606 -318.58717
L 360.030151 -317.254973
L 354.739697 -311.267119
L 349.449242 -309.402065
L 344.158787 -310.357191
L 338.868332 -308.797561
L 333.577877 -308.514008
L 328.287422 -305.541347
L 322.996968 -306.560252
L 317.706513 -306.818605
L 312.416058 -311.029754
L 307.125603 -317.480525
L 301.835148 -317.348647
L 296.544693 -321.969495
L 291.254239 -325.231858
L 285.963784 -318.661233
L 280.673329 -319.40835
L 275.382874 -317.832108
L 270.092419 -313.305154
z
"/>
    </defs>
    <g clip-path="url(#p1a7eaaf2d7)">
     <use xlink:href="#m4dc9ba5860" x="0" y="452.167281" style="fill: #b85c38; fill-opacity: 0.14"/>
    </g>
   </g>
   <g id="FillBetweenPolyCollection_6">
    <defs>
     <path id="m3d6e3f733f" d="M 270.092419 -313.305154
L 270.092419 -305.921386
L 275.382874 -314.99517
L 280.673329 -318.047867
L 285.963784 -316.597484
L 291.254239 -322.922433
L 296.544693 -321.038483
L 301.835148 -314.114202
L 307.125603 -314.091153
L 312.416058 -301.476741
L 317.706513 -293.311406
L 322.996968 -292.971313
L 328.287422 -290.702777
L 333.577877 -296.602225
L 338.868332 -297.103846
L 344.158787 -300.114659
L 349.449242 -298.67001
L 354.739697 -301.716361
L 360.030151 -313.217702
L 365.320606 -315.383427
L 370.611061 -323.010066
L 375.901516 -317.374553
L 381.191971 -305.904855
L 386.482426 -313.541522
L 391.77288 -311.512689
L 397.063335 -317.076375
L 402.35379 -311.032398
L 407.644245 -309.511334
L 412.9347 -304.650778
L 418.225155 -320.576848
L 423.515609 -325.439227
L 428.806064 -327.593226
L 434.096519 -314.66324
L 439.386974 -320.672941
L 439.386974 -330.486001
L 439.386974 -330.486001
L 434.096519 -346.420237
L 428.806064 -349.576918
L 423.515609 -346.460292
L 418.225155 -339.056946
L 412.9347 -333.115719
L 407.644245 -335.961996
L 402.35379 -338.018884
L 397.063335 -351.819343
L 391.77288 -330.473833
L 386.482426 -331.619095
L 381.191971 -325.435674
L 375.901516 -323.101475
L 370.611061 -326.180551
L 365.320606 -318.506583
L 360.030151 -317.187014
L 354.739697 -311.185212
L 349.449242 -309.407047
L 344.158787 -310.379803
L 338.868332 -308.841949
L 333.577877 -308.537557
L 328.287422 -305.522943
L 322.996968 -306.484964
L 317.706513 -306.784561
L 312.416058 -310.999425
L 307.125603 -317.482497
L 301.835148 -317.344701
L 296.544693 -322.017442
L 291.254239 -325.253884
L 285.963784 -318.659186
L 280.673329 -319.394416
L 275.382874 -317.838101
L 270.092419 -313.305154
z
"/>
    </defs>
    <g clip-path="url(#p1a7eaaf2d7)">
     <use xlink:href="#m3d6e3f733f" x="0" y="452.167281" style="fill: #287d8e; fill-opacity: 0.14"/>
    </g>
   </g>
   <g id="matplotlib.axis_3">
    <g id="xtick_5">
     <g id="line2d_21">
      <g>
       <use xlink:href="#m981beb3dd0" x="270.092419" y="186.270452" style="fill: #2a2a2a; stroke: #2a2a2a; stroke-width: 0.8"/>
      </g>
     </g>
     <g id="text_14">
      <text style="font-size: 8px; font-family: 'STIX Two Text', 'Times New Roman', 'Times', 'STIXGeneral', serif; text-anchor: middle; fill: #2a2a2a" x="270.092419" y="198.325452" transform="rotate(-0 270.092419 198.325452)">0</text>
     </g>
    </g>
    <g id="xtick_6">
     <g id="line2d_22">
      <g>
       <use xlink:href="#m981beb3dd0" x="322.996968" y="186.270452" style="fill: #2a2a2a; stroke: #2a2a2a; stroke-width: 0.8"/>
      </g>
     </g>
     <g id="text_15">
      <text style="font-size: 8px; font-family: 'STIX Two Text', 'Times New Roman', 'Times', 'STIXGeneral', serif; text-anchor: middle; fill: #2a2a2a" x="322.996968" y="198.325452" transform="rotate(-0 322.996968 198.325452)">10</text>
     </g>
    </g>
    <g id="xtick_7">
     <g id="line2d_23">
      <g>
       <use xlink:href="#m981beb3dd0" x="375.901516" y="186.270452" style="fill: #2a2a2a; stroke: #2a2a2a; stroke-width: 0.8"/>
      </g>
     </g>
     <g id="text_16">
      <text style="font-size: 8px; font-family: 'STIX Two Text', 'Times New Roman', 'Times', 'STIXGeneral', serif; text-anchor: middle; fill: #2a2a2a" x="375.901516" y="198.325452" transform="rotate(-0 375.901516 198.325452)">20</text>
     </g>
    </g>
    <g id="xtick_8">
     <g id="line2d_24">
      <g>
       <use xlink:href="#m981beb3dd0" x="428.806064" y="186.270452" style="fill: #2a2a2a; stroke: #2a2a2a; stroke-width: 0.8"/>
      </g>
     </g>
     <g id="text_17">
      <text style="font-size: 8px; font-family: 'STIX Two Text', 'Times New Roman', 'Times', 'STIXGeneral', serif; text-anchor: middle; fill: #2a2a2a" x="428.806064" y="198.325452" transform="rotate(-0 428.806064 198.325452)">30</text>
     </g>
    </g>
   </g>
   <g id="matplotlib.axis_4">
    <g id="ytick_7">
     <g id="line2d_25">
      <path d="M 262.156737 169.835597
L 447.322656 169.835597
" clip-path="url(#p1a7eaaf2d7)" style="fill: none; stroke: #d9d9d9; stroke-opacity: 0.7; stroke-width: 0.45; stroke-linecap: square"/>
     </g>
     <g id="line2d_26">
      <g>
       <use xlink:href="#m534f3453c7" x="262.156737" y="169.835597" style="fill: #2a2a2a; stroke: #2a2a2a; stroke-width: 0.8"/>
      </g>
     </g>
     <g id="text_18">
      <text style="font-size: 8px; font-family: 'STIX Two Text', 'Times New Roman', 'Times', 'STIXGeneral', serif; text-anchor: end; fill: #2a2a2a" x="255.656737" y="172.613097" transform="rotate(-0 255.656737 172.613097)">−2</text>
     </g>
    </g>
    <g id="ytick_8">
     <g id="line2d_27">
      <path d="M 262.156737 150.656978
L 447.322656 150.656978
" clip-path="url(#p1a7eaaf2d7)" style="fill: none; stroke: #d9d9d9; stroke-opacity: 0.7; stroke-width: 0.45; stroke-linecap: square"/>
     </g>
     <g id="line2d_28">
      <g>
       <use xlink:href="#m534f3453c7" x="262.156737" y="150.656978" style="fill: #2a2a2a; stroke: #2a2a2a; stroke-width: 0.8"/>
      </g>
     </g>
     <g id="text_19">
      <text style="font-size: 8px; font-family: 'STIX Two Text', 'Times New Roman', 'Times', 'STIXGeneral', serif; text-anchor: end; fill: #2a2a2a" x="255.656737" y="153.434478" transform="rotate(-0 255.656737 153.434478)">−1</text>
     </g>
    </g>
    <g id="ytick_9">
     <g id="line2d_29">
      <path d="M 262.156737 131.478358
L 447.322656 131.478358
" clip-path="url(#p1a7eaaf2d7)" style="fill: none; stroke: #d9d9d9; stroke-opacity: 0.7; stroke-width: 0.45; stroke-linecap: square"/>
     </g>
     <g id="line2d_30">
      <g>
       <use xlink:href="#m534f3453c7" x="262.156737" y="131.478358" style="fill: #2a2a2a; stroke: #2a2a2a; stroke-width: 0.8"/>
      </g>
     </g>
     <g id="text_20">
      <text style="font-size: 8px; font-family: 'STIX Two Text', 'Times New Roman', 'Times', 'STIXGeneral', serif; text-anchor: end; fill: #2a2a2a" x="255.656737" y="134.255858" transform="rotate(-0 255.656737 134.255858)">0</text>
     </g>
    </g>
    <g id="ytick_10">
     <g id="line2d_31">
      <path d="M 262.156737 112.299739
L 447.322656 112.299739
" clip-path="url(#p1a7eaaf2d7)" style="fill: none; stroke: #d9d9d9; stroke-opacity: 0.7; stroke-width: 0.45; stroke-linecap: square"/>
     </g>
     <g id="line2d_32">
      <g>
       <use xlink:href="#m534f3453c7" x="262.156737" y="112.299739" style="fill: #2a2a2a; stroke: #2a2a2a; stroke-width: 0.8"/>
      </g>
     </g>
     <g id="text_21">
      <text style="font-size: 8px; font-family: 'STIX Two Text', 'Times New Roman', 'Times', 'STIXGeneral', serif; text-anchor: end; fill: #2a2a2a" x="255.656737" y="115.077239" transform="rotate(-0 255.656737 115.077239)">1</text>
     </g>
    </g>
    <g id="ytick_11">
     <g id="line2d_33">
      <path d="M 262.156737 93.12112
L 447.322656 93.12112
" clip-path="url(#p1a7eaaf2d7)" style="fill: none; stroke: #d9d9d9; stroke-opacity: 0.7; stroke-width: 0.45; stroke-linecap: square"/>
     </g>
     <g id="line2d_34">
      <g>
       <use xlink:href="#m534f3453c7" x="262.156737" y="93.12112" style="fill: #2a2a2a; stroke: #2a2a2a; stroke-width: 0.8"/>
      </g>
     </g>
     <g id="text_22">
      <text style="font-size: 8px; font-family: 'STIX Two Text', 'Times New Roman', 'Times', 'STIXGeneral', serif; text-anchor: end; fill: #2a2a2a" x="255.656737" y="95.89862" transform="rotate(-0 255.656737 95.89862)">2</text>
     </g>
    </g>
    <g id="ytick_12">
     <g id="line2d_35">
      <path d="M 262.156737 73.942501
L 447.322656 73.942501
" clip-path="url(#p1a7eaaf2d7)" style="fill: none; stroke: #d9d9d9; stroke-opacity: 0.7; stroke-width: 0.45; stroke-linecap: square"/>
     </g>
     <g id="line2d_36">
      <g>
       <use xlink:href="#m534f3453c7" x="262.156737" y="73.942501" style="fill: #2a2a2a; stroke: #2a2a2a; stroke-width: 0.8"/>
      </g>
     </g>
     <g id="text_23">
      <text style="font-size: 8px; font-family: 'STIX Two Text', 'Times New Roman', 'Times', 'STIXGeneral', serif; text-anchor: end; fill: #2a2a2a" x="255.656737" y="76.720001" transform="rotate(-0 255.656737 76.720001)">3</text>
     </g>
    </g>
   </g>
   <g id="line2d_37">
    <path d="M 270.092419 142.554011
L 275.382874 135.789552
L 280.673329 133.458151
L 285.963784 134.566915
L 291.254239 128.088138
L 296.544693 130.631303
L 301.835148 136.49077
L 307.125603 136.429838
L 312.416058 146.042622
L 317.706513 152.284663
L 322.996968 152.523507
L 328.287422 154.178552
L 333.577877 149.720022
L 338.868332 149.334951
L 344.158787 147.024277
L 349.449242 148.206666
L 354.739697 145.65573
L 360.030151 136.87691
L 365.320606 135.132424
L 370.611061 127.533257
L 375.901516 132.484932
L 381.191971 138.622581
L 386.482426 131.749002
L 391.77288 133.422285
L 397.063335 122.275618
L 402.35379 131.246305
L 407.644245 133.103547
L 412.9347 137.174009
L 418.225155 124.841757
L 423.515609 119.315917
L 428.806064 116.574973
L 434.096519 126.028434
L 439.386974 128.026207
" clip-path="url(#p1a7eaaf2d7)" style="fill: none; stroke: #252525; stroke-width: 1.25; stroke-linecap: square"/>
    <g clip-path="url(#p1a7eaaf2d7)">
     <use xlink:href="#m40ba5eb1a4" x="270.092419" y="142.554011" style="fill: #252525; stroke: #252525"/>
     <use xlink:href="#m40ba5eb1a4" x="296.544693" y="130.631303" style="fill: #252525; stroke: #252525"/>
     <use xlink:href="#m40ba5eb1a4" x="322.996968" y="152.523507" style="fill: #252525; stroke: #252525"/>
     <use xlink:href="#m40ba5eb1a4" x="349.449242" y="148.206666" style="fill: #252525; stroke: #252525"/>
     <use xlink:href="#m40ba5eb1a4" x="375.901516" y="132.484932" style="fill: #252525; stroke: #252525"/>
     <use xlink:href="#m40ba5eb1a4" x="402.35379" y="131.246305" style="fill: #252525; stroke: #252525"/>
     <use xlink:href="#m40ba5eb1a4" x="428.806064" y="116.574973" style="fill: #252525; stroke: #252525"/>
    </g>
   </g>
   <g id="line2d_38">
    <path d="M 270.092419 142.554011
L 275.382874 135.795546
L 280.673329 133.452158
L 285.963784 134.564917
L 291.254239 128.076151
L 296.544693 130.677252
L 301.835148 136.478784
L 307.125603 136.414855
L 312.416058 146.030136
L 317.706513 152.264436
L 322.996968 152.535634
L 328.287422 154.205522
L 333.577877 149.773962
L 338.868332 149.391513
L 344.158787 147.070226
L 349.449242 148.282266
L 354.739697 145.695485
L 360.030151 136.937669
L 365.320606 135.157212
L 370.611061 127.558603
L 375.901516 132.909888
L 381.191971 140.110684
L 386.482426 133.288622
L 391.77288 134.973805
L 397.063335 124.933904
L 402.35379 133.546553
L 407.644245 135.285115
L 412.9347 139.474444
L 418.225155 126.340087
L 423.515609 121.093935
L 428.806064 118.476853
L 434.096519 128.601566
L 439.386974 128.761387
" clip-path="url(#p1a7eaaf2d7)" style="fill: none; stroke: #b85c38; stroke-width: 1.25; stroke-linecap: square"/>
    <g clip-path="url(#p1a7eaaf2d7)">
     <use xlink:href="#m641ad6da60" x="270.092419" y="142.554011" style="fill: #b85c38; stroke: #b85c38; stroke-linejoin: miter"/>
     <use xlink:href="#m641ad6da60" x="296.544693" y="130.677252" style="fill: #b85c38; stroke: #b85c38; stroke-linejoin: miter"/>
     <use xlink:href="#m641ad6da60" x="322.996968" y="152.535634" style="fill: #b85c38; stroke: #b85c38; stroke-linejoin: miter"/>
     <use xlink:href="#m641ad6da60" x="349.449242" y="148.282266" style="fill: #b85c38; stroke: #b85c38; stroke-linejoin: miter"/>
     <use xlink:href="#m641ad6da60" x="375.901516" y="132.909888" style="fill: #b85c38; stroke: #b85c38; stroke-linejoin: miter"/>
     <use xlink:href="#m641ad6da60" x="402.35379" y="133.546553" style="fill: #b85c38; stroke: #b85c38; stroke-linejoin: miter"/>
     <use xlink:href="#m641ad6da60" x="428.806064" y="118.476853" style="fill: #b85c38; stroke: #b85c38; stroke-linejoin: miter"/>
    </g>
   </g>
   <g id="line2d_39">
    <path d="M 270.092419 142.554011
L 275.382874 135.789552
L 280.673329 133.462147
L 285.963784 134.564917
L 291.254239 128.044187
L 296.544693 130.639294
L 301.835148 136.484777
L 307.125603 136.415854
L 312.416058 146.049614
L 317.706513 152.307138
L 322.996968 152.588419
L 328.287422 154.214012
L 333.577877 149.726515
L 338.868332 149.349747
L 344.158787 147.04463
L 349.449242 148.246076
L 354.739697 145.780003
L 360.030151 137.004875
L 365.320606 135.235129
L 370.611061 127.545743
L 375.901516 131.97564
L 381.191971 136.596372
L 386.482426 129.632307
L 391.77288 131.296124
L 397.063335 117.892504
L 402.35379 127.835045
L 407.644245 129.635413
L 412.9347 133.51309
L 418.225155 122.568292
L 423.515609 116.387182
L 428.806064 113.730145
L 434.096519 121.841102
L 439.386974 126.699686
" clip-path="url(#p1a7eaaf2d7)" style="fill: none; stroke: #287d8e; stroke-width: 1.25; stroke-linecap: square"/>
    <g clip-path="url(#p1a7eaaf2d7)">
     <use xlink:href="#mb53c1e313b" x="270.092419" y="142.554011" style="fill: #287d8e; stroke: #287d8e; stroke-linejoin: miter"/>
     <use xlink:href="#mb53c1e313b" x="296.544693" y="130.639294" style="fill: #287d8e; stroke: #287d8e; stroke-linejoin: miter"/>
     <use xlink:href="#mb53c1e313b" x="322.996968" y="152.588419" style="fill: #287d8e; stroke: #287d8e; stroke-linejoin: miter"/>
     <use xlink:href="#mb53c1e313b" x="349.449242" y="148.246076" style="fill: #287d8e; stroke: #287d8e; stroke-linejoin: miter"/>
     <use xlink:href="#mb53c1e313b" x="375.901516" y="131.97564" style="fill: #287d8e; stroke: #287d8e; stroke-linejoin: miter"/>
     <use xlink:href="#mb53c1e313b" x="402.35379" y="127.835045" style="fill: #287d8e; stroke: #287d8e; stroke-linejoin: miter"/>
     <use xlink:href="#mb53c1e313b" x="428.806064" y="113.730145" style="fill: #287d8e; stroke: #287d8e; stroke-linejoin: miter"/>
    </g>
   </g>
   <g id="line2d_40">
    <path d="M 262.156737 131.478358
L 447.322656 131.478358
" clip-path="url(#p1a7eaaf2d7)" style="fill: none; stroke-dasharray: 2.25,1.5; stroke-dashoffset: 0; stroke: #2a2a2a; stroke-width: 0.75"/>
   </g>
   <g id="patch_7">
    <path d="M 262.156737 186.270452
L 262.156737 61.664
" style="fill: none; stroke: #2a2a2a; stroke-width: 0.85; stroke-linejoin: miter; stroke-linecap: square"/>
   </g>
   <g id="patch_8">
    <path d="M 262.156737 186.270452
L 447.322656 186.270452
" style="fill: none; stroke: #2a2a2a; stroke-width: 0.85; stroke-linejoin: miter; stroke-linecap: square"/>
   </g>
   <g id="text_24">
    <g id="patch_9">
     <path d="M 266.511715 79.101325
L 275.582027 79.101325
L 275.582027 67.940387
L 266.511715 67.940387
z
" style="fill: #ffffff; opacity: 0.9"/>
    </g>
    <text style="font-weight: 700; font-size: 10px; font-family: 'STIX Two Text', 'Times New Roman', 'Times', 'STIXGeneral', serif; text-anchor: start" x="267.711715" y="75.762262" transform="rotate(-0 267.711715 75.762262)">B</text>
   </g>
   <g id="text_25">
    <text style="font-size: 9.5px; font-family: 'STIX Two Text', 'Times New Roman', 'Times', 'STIXGeneral', serif; text-anchor: middle" x="354.739697" y="55.664" transform="rotate(-0 354.739697 55.664)">GAME-favored margin shifts</text>
   </g>
  </g>
  <g id="axes_3">
   <g id="patch_10">
    <path d="M 34.402656 370.688
L 219.568576 370.688
L 219.568576 246.081548
L 34.402656 246.081548
z
" style="fill: #ffffff"/>
   </g>
   <g id="FillBetweenPolyCollection_7">
    <defs>
     <path id="mde94d6f4fc" d="M 42.338339 -156.279838
L 42.338339 -143.371152
L 47.628793 -138.976051
L 52.919248 -137.393201
L 58.209703 -137.877276
L 63.500158 -129.924412
L 68.790613 -134.096876
L 74.081068 -138.814693
L 79.371522 -139.00669
L 84.661977 -144.450669
L 89.952432 -148.547544
L 95.242887 -148.954146
L 100.533342 -149.920533
L 105.823797 -147.447329
L 111.114251 -147.237731
L 116.404706 -145.316747
L 121.695161 -146.750866
L 126.985616 -145.807887
L 132.276071 -140.23376
L 137.566526 -137.843348
L 142.85698 -129.18209
L 148.147435 -139.198557
L 153.43789 -143.230595
L 158.728345 -139.308325
L 164.0188 -139.613802
L 169.309255 -125.375445
L 174.599709 -134.780344
L 179.890164 -136.486519
L 185.180619 -141.542421
L 190.471074 -125.514136
L 195.761529 -119.244203
L 201.051984 -114.572488
L 206.342438 -131.29231
L 211.632893 -132.583178
L 211.632893 -135.472265
L 211.632893 -135.472265
L 206.342438 -137.746653
L 201.051984 -131.599659
L 195.761529 -133.443757
L 190.471074 -133.382288
L 185.180619 -151.68496
L 179.890164 -144.800712
L 174.599709 -143.202109
L 169.309255 -138.0079
L 164.0188 -146.840361
L 158.728345 -147.072938
L 153.43789 -154.017057
L 148.147435 -144.642352
L 142.85698 -135.510732
L 137.566526 -143.501713
L 132.276071 -148.31612
L 126.985616 -164.777038
L 121.695161 -167.359921
L 116.404706 -164.299863
L 111.114251 -167.932232
L 105.823797 -168.616181
L 100.533342 -176.518813
L 95.242887 -173.416648
L 89.952432 -172.379197
L 84.661977 -162.140804
L 79.371522 -145.806898
L 74.081068 -145.768479
L 68.790613 -135.503
L 63.500158 -133.73574
L 58.209703 -142.034181
L 52.919248 -139.882733
L 47.628793 -144.185628
L 42.338339 -156.279838
z
"/>
    </defs>
    <g clip-path="url(#p79370e7161)">
     <use xlink:href="#mde94d6f4fc" x="0" y="452.167281" style="fill: #252525; fill-opacity: 0.14"/>
    </g>
   </g>
   <g id="FillBetweenPolyCollection_8">
    <defs>
     <path id="m98cac3911f" d="M 42.338339 -156.279838
L 42.338339 -143.371152
L 47.628793 -138.968368
L 52.919248 -137.393201
L 58.209703 -137.861909
L 63.500158 -129.909044
L 68.790613 -134.050773
L 74.081068 -138.829868
L 79.371522 -138.991323
L 84.661977 -144.46767
L 89.952432 -148.401553
L 95.242887 -149.009195
L 100.533342 -149.817475
L 105.823797 -147.443535
L 111.114251 -147.215292
L 116.404706 -145.268964
L 121.695161 -146.792188
L 126.985616 -145.800309
L 132.276071 -140.291104
L 137.566526 -138.093193
L 142.85698 -129.491433
L 148.147435 -140.52383
L 153.43789 -148.070912
L 158.728345 -144.761861
L 164.0188 -144.796486
L 169.309255 -138.445873
L 174.599709 -144.492594
L 179.890164 -145.522599
L 185.180619 -150.547766
L 190.471074 -128.341753
L 195.761529 -125.514136
L 201.051984 -121.487855
L 206.342438 -141.250439
L 211.632893 -135.226386
L 211.632893 -137.931063
L 211.632893 -137.931063
L 206.342438 -148.196541
L 201.051984 -138.176942
L 195.761529 -139.191196
L 190.471074 -136.548757
L 185.180619 -162.181335
L 179.890164 -155.588301
L 174.599709 -154.666636
L 169.309255 -152.975829
L 164.0188 -152.145985
L 158.728345 -152.541745
L 153.43789 -159.300878
L 148.147435 -146.047408
L 142.85698 -135.695142
L 137.566526 -143.726532
L 132.276071 -148.347021
L 126.985616 -164.81333
L 121.695161 -167.487378
L 116.404706 -164.336385
L 111.114251 -167.931476
L 105.823797 -168.620023
L 100.533342 -176.522751
L 95.242887 -173.473711
L 89.952432 -172.248574
L 84.661977 -162.075348
L 79.371522 -145.780005
L 74.081068 -145.768479
L 68.790613 -135.487633
L 63.500158 -133.743615
L 58.209703 -142.064916
L 52.919248 -139.8981
L 47.628793 -144.177945
L 42.338339 -156.279838
z
"/>
    </defs>
    <g clip-path="url(#p79370e7161)">
     <use xlink:href="#m98cac3911f" x="0" y="452.167281" style="fill: #b85c38; fill-opacity: 0.14"/>
    </g>
   </g>
   <g id="FillBetweenPolyCollection_9">
    <defs>
     <path id="me48ee7f45a" d="M 42.338339 -156.279838
L 42.338339 -143.371152
L 47.628793 -138.976051
L 52.919248 -137.400884
L 58.209703 -137.854033
L 63.500158 -129.886185
L 68.790613 -134.050773
L 74.081068 -138.76859
L 79.371522 -139.03368
L 84.661977 -144.441065
L 89.952432 -148.473108
L 95.242887 -148.955962
L 100.533342 -149.842255
L 105.823797 -147.502171
L 111.114251 -147.210279
L 116.404706 -145.297754
L 121.695161 -146.803862
L 126.985616 -145.909997
L 132.276071 -140.24193
L 137.566526 -137.896383
L 142.85698 -129.448152
L 148.147435 -138.240224
L 153.43789 -139.364728
L 158.728345 -135.078233
L 164.0188 -135.533639
L 169.309255 -114.234403
L 174.599709 -126.666697
L 179.890164 -128.864247
L 185.180619 -133.76609
L 190.471074 -123.024604
L 195.761529 -113.957789
L 201.051984 -108.978724
L 206.342438 -122.3177
L 211.632893 -130.616141
L 211.632893 -133.628167
L 211.632893 -133.628167
L 206.342438 -128.894982
L 201.051984 -126.067365
L 195.761529 -128.341753
L 190.471074 -130.709114
L 185.180619 -143.709236
L 179.890164 -136.655561
L 174.599709 -134.842198
L 169.309255 -126.28251
L 164.0188 -143.624811
L 158.728345 -143.621017
L 153.43789 -150.530192
L 148.147435 -143.891104
L 142.85698 -135.693215
L 137.566526 -143.596308
L 132.276071 -148.310705
L 126.985616 -164.802762
L 121.695161 -167.352314
L 116.404706 -164.257723
L 111.114251 -167.90454
L 105.823797 -168.568254
L 100.533342 -176.473047
L 95.242887 -173.389695
L 89.952432 -172.288961
L 84.661977 -162.067616
L 79.371522 -145.814678
L 74.081068 -145.707201
L 68.790613 -135.464582
L 63.500158 -133.735932
L 58.209703 -142.011129
L 52.919248 -139.8981
L 47.628793 -144.185628
L 42.338339 -156.279838
z
"/>
    </defs>
    <g clip-path="url(#p79370e7161)">
     <use xlink:href="#me48ee7f45a" x="0" y="452.167281" style="fill: #287d8e; fill-opacity: 0.14"/>
    </g>
   </g>
   <g id="matplotlib.axis_5">
    <g id="xtick_9">
     <g id="line2d_41">
      <g>
       <use xlink:href="#m981beb3dd0" x="42.338339" y="370.688" style="fill: #2a2a2a; stroke: #2a2a2a; stroke-width: 0.8"/>
      </g>
     </g>
     <g id="text_26">
      <text style="font-size: 8px; font-family: 'STIX Two Text', 'Times New Roman', 'Times', 'STIXGeneral', serif; text-anchor: middle; fill: #2a2a2a" x="42.338339" y="382.743" transform="rotate(-0 42.338339 382.743)">0</text>
     </g>
    </g>
    <g id="xtick_10">
     <g id="line2d_42">
      <g>
       <use xlink:href="#m981beb3dd0" x="95.242887" y="370.688" style="fill: #2a2a2a; stroke: #2a2a2a; stroke-width: 0.8"/>
      </g>
     </g>
     <g id="text_27">
      <text style="font-size: 8px; font-family: 'STIX Two Text', 'Times New Roman', 'Times', 'STIXGeneral', serif; text-anchor: middle; fill: #2a2a2a" x="95.242887" y="382.743" transform="rotate(-0 95.242887 382.743)">10</text>
     </g>
    </g>
    <g id="xtick_11">
     <g id="line2d_43">
      <g>
       <use xlink:href="#m981beb3dd0" x="148.147435" y="370.688" style="fill: #2a2a2a; stroke: #2a2a2a; stroke-width: 0.8"/>
      </g>
     </g>
     <g id="text_28">
      <text style="font-size: 8px; font-family: 'STIX Two Text', 'Times New Roman', 'Times', 'STIXGeneral', serif; text-anchor: middle; fill: #2a2a2a" x="148.147435" y="382.743" transform="rotate(-0 148.147435 382.743)">20</text>
     </g>
    </g>
    <g id="xtick_12">
     <g id="line2d_44">
      <g>
       <use xlink:href="#m981beb3dd0" x="201.051984" y="370.688" style="fill: #2a2a2a; stroke: #2a2a2a; stroke-width: 0.8"/>
      </g>
     </g>
     <g id="text_29">
      <text style="font-size: 8px; font-family: 'STIX Two Text', 'Times New Roman', 'Times', 'STIXGeneral', serif; text-anchor: middle; fill: #2a2a2a" x="201.051984" y="382.743" transform="rotate(-0 201.051984 382.743)">30</text>
     </g>
    </g>
    <g id="text_30">
     <text style="font-size: 9px; font-family: 'STIX Two Text', 'Times New Roman', 'Times', 'STIXGeneral', serif; text-anchor: middle" x="126.985616" y="394.68675" transform="rotate(-0 126.985616 394.68675)">Layer</text>
    </g>
   </g>
   <g id="matplotlib.axis_6">
    <g id="ytick_13">
     <g id="line2d_45">
      <path d="M 34.402656 354.253145
L 219.568576 354.253145
" clip-path="url(#p79370e7161)" style="fill: none; stroke: #d9d9d9; stroke-opacity: 0.7; stroke-width: 0.45; stroke-linecap: square"/>
     </g>
     <g id="line2d_46">
      <g>
       <use xlink:href="#m534f3453c7" x="34.402656" y="354.253145" style="fill: #2a2a2a; stroke: #2a2a2a; stroke-width: 0.8"/>
      </g>
     </g>
     <g id="text_31">
      <text style="font-size: 8px; font-family: 'STIX Two Text', 'Times New Roman', 'Times', 'STIXGeneral', serif; text-anchor: end; fill: #2a2a2a" x="27.902656" y="357.030645" transform="rotate(-0 27.902656 357.030645)">−2</text>
     </g>
    </g>
    <g id="ytick_14">
     <g id="line2d_47">
      <path d="M 34.402656 335.074526
L 219.568576 335.074526
" clip-path="url(#p79370e7161)" style="fill: none; stroke: #d9d9d9; stroke-opacity: 0.7; stroke-width: 0.45; stroke-linecap: square"/>
     </g>
     <g id="line2d_48">
      <g>
       <use xlink:href="#m534f3453c7" x="34.402656" y="335.074526" style="fill: #2a2a2a; stroke: #2a2a2a; stroke-width: 0.8"/>
      </g>
     </g>
     <g id="text_32">
      <text style="font-size: 8px; font-family: 'STIX Two Text', 'Times New Roman', 'Times', 'STIXGeneral', serif; text-anchor: end; fill: #2a2a2a" x="27.902656" y="337.852026" transform="rotate(-0 27.902656 337.852026)">−1</text>
     </g>
    </g>
    <g id="ytick_15">
     <g id="line2d_49">
      <path d="M 34.402656 315.895907
L 219.568576 315.895907
" clip-path="url(#p79370e7161)" style="fill: none; stroke: #d9d9d9; stroke-opacity: 0.7; stroke-width: 0.45; stroke-linecap: square"/>
     </g>
     <g id="line2d_50">
      <g>
       <use xlink:href="#m534f3453c7" x="34.402656" y="315.895907" style="fill: #2a2a2a; stroke: #2a2a2a; stroke-width: 0.8"/>
      </g>
     </g>
     <g id="text_33">
      <text style="font-size: 8px; font-family: 'STIX Two Text', 'Times New Roman', 'Times', 'STIXGeneral', serif; text-anchor: end; fill: #2a2a2a" x="27.902656" y="318.673407" transform="rotate(-0 27.902656 318.673407)">0</text>
     </g>
    </g>
    <g id="ytick_16">
     <g id="line2d_51">
      <path d="M 34.402656 296.717288
L 219.568576 296.717288
" clip-path="url(#p79370e7161)" style="fill: none; stroke: #d9d9d9; stroke-opacity: 0.7; stroke-width: 0.45; stroke-linecap: square"/>
     </g>
     <g id="line2d_52">
      <g>
       <use xlink:href="#m534f3453c7" x="34.402656" y="296.717288" style="fill: #2a2a2a; stroke: #2a2a2a; stroke-width: 0.8"/>
      </g>
     </g>
     <g id="text_34">
      <text style="font-size: 8px; font-family: 'STIX Two Text', 'Times New Roman', 'Times', 'STIXGeneral', serif; text-anchor: end; fill: #2a2a2a" x="27.902656" y="299.494788" transform="rotate(-0 27.902656 299.494788)">1</text>
     </g>
    </g>
    <g id="ytick_17">
     <g id="line2d_53">
      <path d="M 34.402656 277.538668
L 219.568576 277.538668
" clip-path="url(#p79370e7161)" style="fill: none; stroke: #d9d9d9; stroke-opacity: 0.7; stroke-width: 0.45; stroke-linecap: square"/>
     </g>
     <g id="line2d_54">
      <g>
       <use xlink:href="#m534f3453c7" x="34.402656" y="277.538668" style="fill: #2a2a2a; stroke: #2a2a2a; stroke-width: 0.8"/>
      </g>
     </g>
     <g id="text_35">
      <text style="font-size: 8px; font-family: 'STIX Two Text', 'Times New Roman', 'Times', 'STIXGeneral', serif; text-anchor: end; fill: #2a2a2a" x="27.902656" y="280.316168" transform="rotate(-0 27.902656 280.316168)">2</text>
     </g>
    </g>
    <g id="ytick_18">
     <g id="line2d_55">
      <path d="M 34.402656 258.360049
L 219.568576 258.360049
" clip-path="url(#p79370e7161)" style="fill: none; stroke: #d9d9d9; stroke-opacity: 0.7; stroke-width: 0.45; stroke-linecap: square"/>
     </g>
     <g id="line2d_56">
      <g>
       <use xlink:href="#m534f3453c7" x="34.402656" y="258.360049" style="fill: #2a2a2a; stroke: #2a2a2a; stroke-width: 0.8"/>
      </g>
     </g>
     <g id="text_36">
      <text style="font-size: 8px; font-family: 'STIX Two Text', 'Times New Roman', 'Times', 'STIXGeneral', serif; text-anchor: end; fill: #2a2a2a" x="27.902656" y="261.137549" transform="rotate(-0 27.902656 261.137549)">3</text>
     </g>
    </g>
    <g id="text_37">
     <text style="font-size: 9px; font-family: 'STIX Two Text', 'Times New Roman', 'Times', 'STIXGeneral', serif; text-anchor: middle" x="13.449375" y="308.384774" transform="rotate(-90 13.449375 308.384774)">Safe-action margin</text>
    </g>
   </g>
   <g id="line2d_57">
    <path d="M 42.338339 302.341787
L 47.628793 310.517288
L 52.919248 313.460161
L 58.209703 312.107822
L 63.500158 320.444682
L 68.790613 317.363502
L 74.081068 309.710495
L 79.371522 309.579871
L 84.661977 298.538334
L 89.952432 291.340589
L 95.242887 290.61266
L 100.533342 288.551391
L 105.823797 293.689893
L 111.114251 294.064476
L 116.404706 296.893053
L 121.695161 294.56674
L 126.985616 296.37389
L 132.276071 307.684388
L 137.566526 311.428034
L 142.85698 319.86552
L 148.147435 310.217802
L 153.43789 303.458413
L 158.728345 309.007432
L 164.0188 308.919069
L 169.309255 320.521519
L 174.599709 313.175862
L 179.890164 311.516174
L 185.180619 305.430651
L 190.471074 322.811274
L 195.761529 326.192121
L 201.051984 329.542232
L 206.342438 317.740005
L 211.632893 318.231764
" clip-path="url(#p79370e7161)" style="fill: none; stroke: #252525; stroke-width: 1.25; stroke-linecap: square"/>
    <g clip-path="url(#p79370e7161)">
     <use xlink:href="#m40ba5eb1a4" x="42.338339" y="302.341787" style="fill: #252525; stroke: #252525"/>
     <use xlink:href="#m40ba5eb1a4" x="68.790613" y="317.363502" style="fill: #252525; stroke: #252525"/>
     <use xlink:href="#m40ba5eb1a4" x="95.242887" y="290.61266" style="fill: #252525; stroke: #252525"/>
     <use xlink:href="#m40ba5eb1a4" x="121.695161" y="294.56674" style="fill: #252525; stroke: #252525"/>
     <use xlink:href="#m40ba5eb1a4" x="148.147435" y="310.217802" style="fill: #252525; stroke: #252525"/>
     <use xlink:href="#m40ba5eb1a4" x="174.599709" y="313.175862" style="fill: #252525; stroke: #252525"/>
     <use xlink:href="#m40ba5eb1a4" x="201.051984" y="329.542232" style="fill: #252525; stroke: #252525"/>
    </g>
   </g>
   <g id="line2d_58">
    <path d="M 42.338339 302.341787
L 47.628793 310.524971
L 52.919248 313.452477
L 58.209703 312.107822
L 63.500158 320.436998
L 68.790613 317.386553
L 74.081068 309.718179
L 79.371522 309.606764
L 84.661977 298.582516
L 89.952432 291.438557
L 95.242887 290.557778
L 100.533342 288.564838
L 105.823797 293.695656
L 111.114251 294.049348
L 116.404706 296.894974
L 121.695161 294.461892
L 126.985616 296.349879
L 132.276071 307.655754
L 137.566526 311.19032
L 142.85698 319.629245
L 148.147435 308.832867
L 153.43789 298.369892
L 158.728345 303.525083
L 164.0188 303.694125
L 169.309255 306.529426
L 174.599709 302.664504
L 179.890164 301.65025
L 185.180619 295.687666
L 190.471074 319.799248
L 195.761529 320.075862
L 201.051984 322.749804
L 206.342438 307.535996
L 211.632893 315.650027
" clip-path="url(#p79370e7161)" style="fill: none; stroke: #b85c38; stroke-width: 1.25; stroke-linecap: square"/>
    <g clip-path="url(#p79370e7161)">
     <use xlink:href="#m641ad6da60" x="42.338339" y="302.341787" style="fill: #b85c38; stroke: #b85c38; stroke-linejoin: miter"/>
     <use xlink:href="#m641ad6da60" x="68.790613" y="317.386553" style="fill: #b85c38; stroke: #b85c38; stroke-linejoin: miter"/>
     <use xlink:href="#m641ad6da60" x="95.242887" y="290.557778" style="fill: #b85c38; stroke: #b85c38; stroke-linejoin: miter"/>
     <use xlink:href="#m641ad6da60" x="121.695161" y="294.461892" style="fill: #b85c38; stroke: #b85c38; stroke-linejoin: miter"/>
     <use xlink:href="#m641ad6da60" x="148.147435" y="308.832867" style="fill: #b85c38; stroke: #b85c38; stroke-linejoin: miter"/>
     <use xlink:href="#m641ad6da60" x="174.599709" y="302.664504" style="fill: #b85c38; stroke: #b85c38; stroke-linejoin: miter"/>
     <use xlink:href="#m641ad6da60" x="201.051984" y="322.749804" style="fill: #b85c38; stroke: #b85c38; stroke-linejoin: miter"/>
    </g>
   </g>
   <g id="line2d_59">
    <path d="M 42.338339 302.341787
L 47.628793 310.517288
L 52.919248 313.452477
L 58.209703 312.138557
L 63.500158 320.460049
L 68.790613 317.40192
L 74.081068 309.771965
L 79.371522 309.564504
L 84.661977 298.582516
L 89.952432 291.436636
L 95.242887 290.631944
L 100.533342 288.58981
L 105.823797 293.705261
L 111.114251 294.077922
L 116.404706 296.90746
L 121.695161 294.54597
L 126.985616 296.322265
L 132.276071 307.690511
L 137.566526 311.349285
L 142.85698 319.636208
L 148.147435 311.0773
L 153.43789 307.173
L 158.728345 312.816647
L 164.0188 312.545795
L 169.309255 331.908824
L 174.599709 321.305261
L 179.890164 319.322856
L 185.180619 313.268067
L 190.471074 325.331542
L 195.761529 331.32486
L 201.051984 335.074526
L 206.342438 326.530205
L 211.632893 320.075862
" clip-path="url(#p79370e7161)" style="fill: none; stroke: #287d8e; stroke-width: 1.25; stroke-linecap: square"/>
    <g clip-path="url(#p79370e7161)">
     <use xlink:href="#mb53c1e313b" x="42.338339" y="302.341787" style="fill: #287d8e; stroke: #287d8e; stroke-linejoin: miter"/>
     <use xlink:href="#mb53c1e313b" x="68.790613" y="317.40192" style="fill: #287d8e; stroke: #287d8e; stroke-linejoin: miter"/>
     <use xlink:href="#mb53c1e313b" x="95.242887" y="290.631944" style="fill: #287d8e; stroke: #287d8e; stroke-linejoin: miter"/>
     <use xlink:href="#mb53c1e313b" x="121.695161" y="294.54597" style="fill: #287d8e; stroke: #287d8e; stroke-linejoin: miter"/>
     <use xlink:href="#mb53c1e313b" x="148.147435" y="311.0773" style="fill: #287d8e; stroke: #287d8e; stroke-linejoin: miter"/>
     <use xlink:href="#mb53c1e313b" x="174.599709" y="321.305261" style="fill: #287d8e; stroke: #287d8e; stroke-linejoin: miter"/>
     <use xlink:href="#mb53c1e313b" x="201.051984" y="335.074526" style="fill: #287d8e; stroke: #287d8e; stroke-linejoin: miter"/>
    </g>
   </g>
   <g id="line2d_60">
    <path d="M 34.402656 315.895907
L 219.568576 315.895907
" clip-path="url(#p79370e7161)" style="fill: none; stroke-dasharray: 2.25,1.5; stroke-dashoffset: 0; stroke: #2a2a2a; stroke-width: 0.75"/>
   </g>
   <g id="patch_11">
    <path d="M 34.402656 370.688
L 34.402656 246.081548
" style="fill: none; stroke: #2a2a2a; stroke-width: 0.85; stroke-linejoin: miter; stroke-linecap: square"/>
   </g>
   <g id="patch_12">
    <path d="M 34.402656 370.688
L 219.568576 370.688
" style="fill: none; stroke: #2a2a2a; stroke-width: 0.85; stroke-linejoin: miter; stroke-linecap: square"/>
   </g>
   <g id="text_38">
    <g id="patch_13">
     <path d="M 38.757634 263.518873
L 48.379509 263.518873
L 48.379509 252.357935
L 38.757634 252.357935
z
" style="fill: #ffffff; opacity: 0.9"/>
    </g>
    <text style="font-weight: 700; font-size: 10px; font-family: 'STIX Two Text', 'Times New Roman', 'Times', 'STIXGeneral', serif; text-anchor: start" x="39.957634" y="260.17981" transform="rotate(-0 39.957634 260.17981)">C</text>
   </g>
   <g id="text_39">
    <text style="font-size: 9.5px; font-family: 'STIX Two Text', 'Times New Roman', 'Times', 'STIXGeneral', serif" transform="translate(77.560382 230.133564)">UT-safe / GAME-harmful</text>
    <text style="font-size: 9.5px; font-family: 'STIX Two Text', 'Times New Roman', 'Times', 'STIXGeneral', serif" transform="translate(99.813389 240.081548)">disagreements</text>
   </g>
  </g>
  <g id="axes_4">
   <g id="patch_14">
    <path d="M 262.156737 370.688
L 447.322656 370.688
L 447.322656 246.081548
L 262.156737 246.081548
z
" style="fill: #ffffff"/>
   </g>
   <g id="FillBetweenPolyCollection_10">
    <defs>
     <path id="m3211deedfc" d="M 270.092419 -125.298991
L 270.092419 -113.681174
L 275.382874 -127.427388
L 280.673329 -132.091419
L 285.963784 -129.947655
L 291.254239 -139.62917
L 296.544693 -137.277945
L 301.835148 -125.813802
L 307.125603 -125.579352
L 312.416058 -106.469982
L 317.706513 -94.350705
L 322.996968 -93.795019
L 328.287422 -90.124503
L 333.577877 -98.713245
L 338.868332 -99.356206
L 344.158787 -104.82182
L 349.449242 -103.130073
L 354.739697 -106.853455
L 360.030151 -124.20921
L 365.320606 -128.101665
L 370.611061 -139.614666
L 375.901516 -127.564307
L 381.191971 -117.712713
L 386.482426 -128.053613
L 391.77288 -126.462934
L 397.063335 -135.487633
L 402.35379 -129.017922
L 407.644245 -128.003668
L 412.9347 -118.967204
L 418.225155 -137.224158
L 423.515609 -143.278947
L 428.806064 -145.799214
L 434.096519 -138.361352
L 439.386974 -138.607232
L 439.386974 -140.45133
L 439.386974 -140.45133
L 434.096519 -142.111018
L 428.806064 -159.507009
L 423.515609 -153.729604
L 418.225155 -144.72349
L 412.9347 -129.110127
L 407.644245 -135.457282
L 402.35379 -137.808123
L 397.063335 -147.812354
L 391.77288 -133.877937
L 386.482426 -135.207272
L 381.191971 -127.579826
L 375.901516 -133.13156
L 370.611061 -144.812958
L 365.320606 -133.729077
L 360.030151 -130.645004
L 354.739697 -121.807785
L 349.449242 -120.103719
L 344.158787 -121.115386
L 338.868332 -118.485469
L 333.577877 -118.078243
L 328.287422 -113.719689
L 322.996968 -115.381325
L 317.706513 -115.780756
L 312.416058 -121.827957
L 307.125603 -130.881518
L 301.835148 -131.084849
L 296.544693 -138.814693
L 291.254239 -143.494092
L 285.963784 -133.028835
L 280.673329 -134.181397
L 275.382874 -131.937744
L 270.092419 -125.298991
z
"/>
    </defs>
    <g clip-path="url(#pcfca155ec5)">
     <use xlink:href="#m3211deedfc" x="0" y="452.167281" style="fill: #252525; fill-opacity: 0.14"/>
    </g>
   </g>
   <g id="FillBetweenPolyCollection_11">
    <defs>
     <path id="mda2c76fe50" d="M 270.092419 -125.298991
L 270.092419 -113.681174
L 275.382874 -127.419704
L 280.673329 -132.106786
L 285.963784 -129.901553
L 291.254239 -139.659904
L 296.544693 -137.254701
L 301.835148 -125.790751
L 307.125603 -125.698546
L 312.416058 -106.496827
L 317.706513 -94.362326
L 322.996968 -93.824175
L 328.287422 -90.188134
L 333.577877 -98.73985
L 338.868332 -99.249906
L 344.158787 -104.90053
L 349.449242 -103.135049
L 354.739697 -107.062532
L 360.030151 -124.368562
L 365.320606 -128.13872
L 370.611061 -139.502268
L 375.901516 -126.539296
L 381.191971 -113.666911
L 386.482426 -123.408695
L 391.77288 -122.05261
L 397.063335 -122.840194
L 402.35379 -119.56692
L 407.644245 -119.121263
L 412.9347 -110.377165
L 418.225155 -134.273602
L 423.515609 -137.654448
L 428.806064 -140.08251
L 434.096519 -129.386742
L 439.386974 -136.394314
L 439.386974 -138.299882
L 439.386974 -138.299882
L 434.096519 -134.181397
L 428.806064 -154.405005
L 423.515609 -148.626831
L 418.225155 -142.203223
L 412.9347 -120.980728
L 407.644245 -127.481174
L 402.35379 -129.478947
L 397.063335 -137.055116
L 391.77288 -129.705713
L 386.482426 -130.789073
L 381.191971 -123.467683
L 375.901516 -131.907753
L 370.611061 -144.801384
L 365.320606 -133.784882
L 360.030151 -130.875964
L 354.739697 -122.104686
L 349.449242 -120.219315
L 344.158787 -121.203893
L 338.868332 -118.416544
L 333.577877 -118.124346
L 328.287422 -113.798495
L 322.996968 -115.390632
L 317.706513 -115.763468
L 312.416058 -121.839579
L 307.125603 -130.985056
L 301.835148 -131.031063
L 296.544693 -138.791642
L 291.254239 -143.53251
L 285.963784 -132.975049
L 280.673329 -134.196764
L 275.382874 -131.93006
L 270.092419 -125.298991
z
"/>
    </defs>
    <g clip-path="url(#pcfca155ec5)">
     <use xlink:href="#mda2c76fe50" x="0" y="452.167281" style="fill: #b85c38; fill-opacity: 0.14"/>
    </g>
   </g>
   <g id="FillBetweenPolyCollection_12">
    <defs>
     <path id="m1a76ac7eea" d="M 270.092419 -125.298991
L 270.092419 -113.681174
L 275.382874 -127.419704
L 280.673329 -132.11447
L 285.963784 -129.947655
L 291.254239 -139.652221
L 296.544693 -137.262577
L 301.835148 -125.783067
L 307.125603 -125.648602
L 312.416058 -106.433437
L 317.706513 -94.243036
L 322.996968 -93.72722
L 328.287422 -90.07283
L 333.577877 -98.669064
L 338.868332 -99.223722
L 344.158787 -104.823597
L 349.449242 -103.169341
L 354.739697 -106.817669
L 360.030151 -124.196771
L 365.320606 -128.034785
L 370.611061 -139.602264
L 375.901516 -128.331481
L 381.191971 -120.373823
L 386.482426 -131.061702
L 391.77288 -129.507665
L 397.063335 -142.940862
L 402.35379 -134.166029
L 407.644245 -133.028835
L 412.9347 -124.33084
L 418.225155 -139.191196
L 423.515609 -147.059348
L 428.806064 -150.162043
L 434.096519 -143.955116
L 439.386974 -139.8981
L 439.386974 -141.742198
L 439.386974 -141.742198
L 434.096519 -148.073602
L 428.806064 -163.809905
L 423.515609 -157.662911
L 418.225155 -146.813468
L 412.9347 -134.903668
L 407.644245 -141.081397
L 402.35379 -143.586296
L 397.063335 -155.834181
L 391.77288 -137.055212
L 386.482426 -138.272989
L 381.191971 -130.453812
L 375.901516 -133.999705
L 370.611061 -144.682682
L 365.320606 -133.727037
L 360.030151 -130.687263
L 354.739697 -121.910965
L 349.449242 -120.161341
L 344.158787 -121.105637
L 338.868332 -118.393769
L 333.577877 -118.05913
L 328.287422 -113.7024
L 322.996968 -115.290059
L 317.706513 -115.602253
L 312.416058 -121.764566
L 307.125603 -130.950479
L 301.835148 -130.992644
L 296.544693 -138.783958
L 291.254239 -143.486408
L 285.963784 -132.990609
L 280.673329 -134.204448
L 275.382874 -131.93006
L 270.092419 -125.298991
z
"/>
    </defs>
    <g clip-path="url(#pcfca155ec5)">
     <use xlink:href="#m1a76ac7eea" x="0" y="452.167281" style="fill: #287d8e; fill-opacity: 0.14"/>
    </g>
   </g>
   <g id="matplotlib.axis_7">
    <g id="xtick_13">
     <g id="line2d_61">
      <g>
       <use xlink:href="#m981beb3dd0" x="270.092419" y="370.688" style="fill: #2a2a2a; stroke: #2a2a2a; stroke-width: 0.8"/>
      </g>
     </g>
     <g id="text_40">
      <text style="font-size: 8px; font-family: 'STIX Two Text', 'Times New Roman', 'Times', 'STIXGeneral', serif; text-anchor: middle; fill: #2a2a2a" x="270.092419" y="382.743" transform="rotate(-0 270.092419 382.743)">0</text>
     </g>
    </g>
    <g id="xtick_14">
     <g id="line2d_62">
      <g>
       <use xlink:href="#m981beb3dd0" x="322.996968" y="370.688" style="fill: #2a2a2a; stroke: #2a2a2a; stroke-width: 0.8"/>
      </g>
     </g>
     <g id="text_41">
      <text style="font-size: 8px; font-family: 'STIX Two Text', 'Times New Roman', 'Times', 'STIXGeneral', serif; text-anchor: middle; fill: #2a2a2a" x="322.996968" y="382.743" transform="rotate(-0 322.996968 382.743)">10</text>
     </g>
    </g>
    <g id="xtick_15">
     <g id="line2d_63">
      <g>
       <use xlink:href="#m981beb3dd0" x="375.901516" y="370.688" style="fill: #2a2a2a; stroke: #2a2a2a; stroke-width: 0.8"/>
      </g>
     </g>
     <g id="text_42">
      <text style="font-size: 8px; font-family: 'STIX Two Text', 'Times New Roman', 'Times', 'STIXGeneral', serif; text-anchor: middle; fill: #2a2a2a" x="375.901516" y="382.743" transform="rotate(-0 375.901516 382.743)">20</text>
     </g>
    </g>
    <g id="xtick_16">
     <g id="line2d_64">
      <g>
       <use xlink:href="#m981beb3dd0" x="428.806064" y="370.688" style="fill: #2a2a2a; stroke: #2a2a2a; stroke-width: 0.8"/>
      </g>
     </g>
     <g id="text_43">
      <text style="font-size: 8px; font-family: 'STIX Two Text', 'Times New Roman', 'Times', 'STIXGeneral', serif; text-anchor: middle; fill: #2a2a2a" x="428.806064" y="382.743" transform="rotate(-0 428.806064 382.743)">30</text>
     </g>
    </g>
    <g id="text_44">
     <text style="font-size: 9px; font-family: 'STIX Two Text', 'Times New Roman', 'Times', 'STIXGeneral', serif; text-anchor: middle" x="354.739697" y="394.68675" transform="rotate(-0 354.739697 394.68675)">Layer</text>
    </g>
   </g>
   <g id="matplotlib.axis_8">
    <g id="ytick_19">
     <g id="line2d_65">
      <path d="M 262.156737 354.253145
L 447.322656 354.253145
" clip-path="url(#pcfca155ec5)" style="fill: none; stroke: #d9d9d9; stroke-opacity: 0.7; stroke-width: 0.45; stroke-linecap: square"/>
     </g>
     <g id="line2d_66">
      <g>
       <use xlink:href="#m534f3453c7" x="262.156737" y="354.253145" style="fill: #2a2a2a; stroke: #2a2a2a; stroke-width: 0.8"/>
      </g>
     </g>
     <g id="text_45">
      <text style="font-size: 8px; font-family: 'STIX Two Text', 'Times New Roman', 'Times', 'STIXGeneral', serif; text-anchor: end; fill: #2a2a2a" x="255.656737" y="357.030645" transform="rotate(-0 255.656737 357.030645)">−2</text>
     </g>
    </g>
    <g id="ytick_20">
     <g id="line2d_67">
      <path d="M 262.156737 335.074526
L 447.322656 335.074526
" clip-path="url(#pcfca155ec5)" style="fill: none; stroke: #d9d9d9; stroke-opacity: 0.7; stroke-width: 0.45; stroke-linecap: square"/>
     </g>
     <g id="line2d_68">
      <g>
       <use xlink:href="#m534f3453c7" x="262.156737" y="335.074526" style="fill: #2a2a2a; stroke: #2a2a2a; stroke-width: 0.8"/>
      </g>
     </g>
     <g id="text_46">
      <text style="font-size: 8px; font-family: 'STIX Two Text', 'Times New Roman', 'Times', 'STIXGeneral', serif; text-anchor: end; fill: #2a2a2a" x="255.656737" y="337.852026" transform="rotate(-0 255.656737 337.852026)">−1</text>
     </g>
    </g>
    <g id="ytick_21">
     <g id="line2d_69">
      <path d="M 262.156737 315.895907
L 447.322656 315.895907
" clip-path="url(#pcfca155ec5)" style="fill: none; stroke: #d9d9d9; stroke-opacity: 0.7; stroke-width: 0.45; stroke-linecap: square"/>
     </g>
     <g id="line2d_70">
      <g>
       <use xlink:href="#m534f3453c7" x="262.156737" y="315.895907" style="fill: #2a2a2a; stroke: #2a2a2a; stroke-width: 0.8"/>
      </g>
     </g>
     <g id="text_47">
      <text style="font-size: 8px; font-family: 'STIX Two Text', 'Times New Roman', 'Times', 'STIXGeneral', serif; text-anchor: end; fill: #2a2a2a" x="255.656737" y="318.673407" transform="rotate(-0 255.656737 318.673407)">0</text>
     </g>
    </g>
    <g id="ytick_22">
     <g id="line2d_71">
      <path d="M 262.156737 296.717288
L 447.322656 296.717288
" clip-path="url(#pcfca155ec5)" style="fill: none; stroke: #d9d9d9; stroke-opacity: 0.7; stroke-width: 0.45; stroke-linecap: square"/>
     </g>
     <g id="line2d_72">
      <g>
       <use xlink:href="#m534f3453c7" x="262.156737" y="296.717288" style="fill: #2a2a2a; stroke: #2a2a2a; stroke-width: 0.8"/>
      </g>
     </g>
     <g id="text_48">
      <text style="font-size: 8px; font-family: 'STIX Two Text', 'Times New Roman', 'Times', 'STIXGeneral', serif; text-anchor: end; fill: #2a2a2a" x="255.656737" y="299.494788" transform="rotate(-0 255.656737 299.494788)">1</text>
     </g>
    </g>
    <g id="ytick_23">
     <g id="line2d_73">
      <path d="M 262.156737 277.538668
L 447.322656 277.538668
" clip-path="url(#pcfca155ec5)" style="fill: none; stroke: #d9d9d9; stroke-opacity: 0.7; stroke-width: 0.45; stroke-linecap: square"/>
     </g>
     <g id="line2d_74">
      <g>
       <use xlink:href="#m534f3453c7" x="262.156737" y="277.538668" style="fill: #2a2a2a; stroke: #2a2a2a; stroke-width: 0.8"/>
      </g>
     </g>
     <g id="text_49">
      <text style="font-size: 8px; font-family: 'STIX Two Text', 'Times New Roman', 'Times', 'STIXGeneral', serif; text-anchor: end; fill: #2a2a2a" x="255.656737" y="280.316168" transform="rotate(-0 255.656737 280.316168)">2</text>
     </g>
    </g>
    <g id="ytick_24">
     <g id="line2d_75">
      <path d="M 262.156737 258.360049
L 447.322656 258.360049
" clip-path="url(#pcfca155ec5)" style="fill: none; stroke: #d9d9d9; stroke-opacity: 0.7; stroke-width: 0.45; stroke-linecap: square"/>
     </g>
     <g id="line2d_76">
      <g>
       <use xlink:href="#m534f3453c7" x="262.156737" y="258.360049" style="fill: #2a2a2a; stroke: #2a2a2a; stroke-width: 0.8"/>
      </g>
     </g>
     <g id="text_50">
      <text style="font-size: 8px; font-family: 'STIX Two Text', 'Times New Roman', 'Times', 'STIXGeneral', serif; text-anchor: end; fill: #2a2a2a" x="255.656737" y="261.137549" transform="rotate(-0 255.656737 261.137549)">3</text>
     </g>
    </g>
   </g>
   <g id="line2d_77">
    <path d="M 270.092419 333.322633
L 275.382874 322.719069
L 280.673329 319.100027
L 285.963784 320.79045
L 291.254239 310.478869
L 296.544693 314.13633
L 301.835148 323.917733
L 307.125603 324.121352
L 312.416058 338.751196
L 317.706513 348.12344
L 322.996968 348.560693
L 328.287422 351.383268
L 333.577877 344.654231
L 338.868332 344.142782
L 344.158787 339.936414
L 349.449242 341.256937
L 354.739697 338.376247
L 360.030151 324.903713
L 365.320606 321.249342
L 370.611061 309.814225
L 375.901516 321.783994
L 381.191971 329.602742
L 386.482426 320.540729
L 391.77288 321.979509
L 397.063335 310.517288
L 402.35379 318.738891
L 407.644245 320.536887
L 412.9347 328.282098
L 418.225155 311.070517
L 423.515609 303.325305
L 428.806064 298.991675
L 434.096519 311.900361
L 439.386974 312.57653
" clip-path="url(#pcfca155ec5)" style="fill: none; stroke: #252525; stroke-width: 1.25; stroke-linecap: square"/>
    <g clip-path="url(#pcfca155ec5)">
     <use xlink:href="#m40ba5eb1a4" x="270.092419" y="333.322633" style="fill: #252525; stroke: #252525"/>
     <use xlink:href="#m40ba5eb1a4" x="296.544693" y="314.13633" style="fill: #252525; stroke: #252525"/>
     <use xlink:href="#m40ba5eb1a4" x="322.996968" y="348.560693" style="fill: #252525; stroke: #252525"/>
     <use xlink:href="#m40ba5eb1a4" x="349.449242" y="341.256937" style="fill: #252525; stroke: #252525"/>
     <use xlink:href="#m40ba5eb1a4" x="375.901516" y="321.783994" style="fill: #252525; stroke: #252525"/>
     <use xlink:href="#m40ba5eb1a4" x="402.35379" y="318.738891" style="fill: #252525; stroke: #252525"/>
     <use xlink:href="#m40ba5eb1a4" x="428.806064" y="298.991675" style="fill: #252525; stroke: #252525"/>
    </g>
   </g>
   <g id="line2d_78">
    <path d="M 270.092419 333.322633
L 275.382874 322.726753
L 280.673329 319.08466
L 285.963784 320.836553
L 291.254239 310.44045
L 296.544693 314.159381
L 301.835148 323.948468
L 307.125603 324.017622
L 312.416058 338.733908
L 317.706513 348.125361
L 322.996968 348.529178
L 328.287422 351.321798
L 333.577877 344.621575
L 338.868332 344.210975
L 344.158787 339.849971
L 349.449242 341.210354
L 354.739697 338.132955
L 360.030151 324.721465
L 365.320606 321.197914
L 370.611061 309.891063
L 375.901516 322.90573
L 381.191971 333.674524
L 386.482426 325.083741
L 391.77288 326.326586
L 397.063335 322.35025
L 402.35379 327.621297
L 407.644245 328.973635
L 412.9347 336.657377
L 418.225155 313.836664
L 423.515609 308.67319
L 428.806064 304.401029
L 434.096519 320.383212
L 439.386974 314.789448
" clip-path="url(#pcfca155ec5)" style="fill: none; stroke: #b85c38; stroke-width: 1.25; stroke-linecap: square"/>
    <g clip-path="url(#pcfca155ec5)">
     <use xlink:href="#m641ad6da60" x="270.092419" y="333.322633" style="fill: #b85c38; stroke: #b85c38; stroke-linejoin: miter"/>
     <use xlink:href="#m641ad6da60" x="296.544693" y="314.159381" style="fill: #b85c38; stroke: #b85c38; stroke-linejoin: miter"/>
     <use xlink:href="#m641ad6da60" x="322.996968" y="348.529178" style="fill: #b85c38; stroke: #b85c38; stroke-linejoin: miter"/>
     <use xlink:href="#m641ad6da60" x="349.449242" y="341.210354" style="fill: #b85c38; stroke: #b85c38; stroke-linejoin: miter"/>
     <use xlink:href="#m641ad6da60" x="375.901516" y="322.90573" style="fill: #b85c38; stroke: #b85c38; stroke-linejoin: miter"/>
     <use xlink:href="#m641ad6da60" x="402.35379" y="327.621297" style="fill: #b85c38; stroke: #b85c38; stroke-linejoin: miter"/>
     <use xlink:href="#m641ad6da60" x="428.806064" y="304.401029" style="fill: #b85c38; stroke: #b85c38; stroke-linejoin: miter"/>
    </g>
   </g>
   <g id="line2d_79">
    <path d="M 270.092419 333.322633
L 275.382874 322.726753
L 280.673329 319.076976
L 285.963784 320.798134
L 291.254239 310.471185
L 296.544693 314.151697
L 301.835148 323.971519
L 307.125603 324.059882
L 312.416058 338.804983
L 317.706513 348.257906
L 322.996968 348.636019
L 328.287422 351.433212
L 333.577877 344.681124
L 338.868332 344.225382
L 344.158787 339.944097
L 349.449242 341.205912
L 354.739697 338.332192
L 360.030151 324.903173
L 365.320606 321.278578
L 370.611061 309.8853
L 375.901516 320.932645
L 381.191971 326.851734
L 386.482426 317.505651
L 391.77288 318.871436
L 397.063335 302.725974
L 402.35379 313.2527
L 407.644245 315.189003
L 412.9347 322.795907
L 418.225155 309.072744
L 423.515609 299.51417
L 428.806064 294.75025
L 434.096519 306.122187
L 439.386974 311.285662
" clip-path="url(#pcfca155ec5)" style="fill: none; stroke: #287d8e; stroke-width: 1.25; stroke-linecap: square"/>
    <g clip-path="url(#pcfca155ec5)">
     <use xlink:href="#mb53c1e313b" x="270.092419" y="333.322633" style="fill: #287d8e; stroke: #287d8e; stroke-linejoin: miter"/>
     <use xlink:href="#mb53c1e313b" x="296.544693" y="314.151697" style="fill: #287d8e; stroke: #287d8e; stroke-linejoin: miter"/>
     <use xlink:href="#mb53c1e313b" x="322.996968" y="348.636019" style="fill: #287d8e; stroke: #287d8e; stroke-linejoin: miter"/>
     <use xlink:href="#mb53c1e313b" x="349.449242" y="341.205912" style="fill: #287d8e; stroke: #287d8e; stroke-linejoin: miter"/>
     <use xlink:href="#mb53c1e313b" x="375.901516" y="320.932645" style="fill: #287d8e; stroke: #287d8e; stroke-linejoin: miter"/>
     <use xlink:href="#mb53c1e313b" x="402.35379" y="313.2527" style="fill: #287d8e; stroke: #287d8e; stroke-linejoin: miter"/>
     <use xlink:href="#mb53c1e313b" x="428.806064" y="294.75025" style="fill: #287d8e; stroke: #287d8e; stroke-linejoin: miter"/>
    </g>
   </g>
   <g id="line2d_80">
    <path d="M 262.156737 315.895907
L 447.322656 315.895907
" clip-path="url(#pcfca155ec5)" style="fill: none; stroke-dasharray: 2.25,1.5; stroke-dashoffset: 0; stroke: #2a2a2a; stroke-width: 0.75"/>
   </g>
   <g id="patch_15">
    <path d="M 262.156737 370.688
L 262.156737 246.081548
" style="fill: none; stroke: #2a2a2a; stroke-width: 0.85; stroke-linejoin: miter; stroke-linecap: square"/>
   </g>
   <g id="patch_16">
    <path d="M 262.156737 370.688
L 447.322656 370.688
" style="fill: none; stroke: #2a2a2a; stroke-width: 0.85; stroke-linejoin: miter; stroke-linecap: square"/>
   </g>
   <g id="text_51">
    <g id="patch_17">
     <path d="M 266.511715 263.518873
L 276.13359 263.518873
L 276.13359 252.357935
L 266.511715 252.357935
z
" style="fill: #ffffff; opacity: 0.9"/>
    </g>
    <text style="font-weight: 700; font-size: 10px; font-family: 'STIX Two Text', 'Times New Roman', 'Times', 'STIXGeneral', serif; text-anchor: start" x="267.711715" y="260.17981" transform="rotate(-0 267.711715 260.17981)">D</text>
   </g>
   <g id="text_52">
    <text style="font-size: 9.5px; font-family: 'STIX Two Text', 'Times New Roman', 'Times', 'STIXGeneral', serif" transform="translate(305.314462 230.133564)">GAME-safe / UT-harmful</text>
    <text style="font-size: 9.5px; font-family: 'STIX Two Text', 'Times New Roman', 'Times', 'STIXGeneral', serif" transform="translate(327.56747 240.081548)">disagreements</text>
   </g>
  </g>
  <g id="text_53">
   <text style="font-size: 8.2px; font-family: 'STIX Two Text', 'Times New Roman', 'Times', 'STIXGeneral', serif; text-anchor: middle" x="234.202656" y="443.197875" transform="rotate(-0 234.202656 443.197875)">Layer 0 is the embedding output; layer 32 recovers the actual behavioral A/B margin.</text>
  </g>
  <g id="legend_1">
   <g id="line2d_81">
    <path d="M 159.717031 13.2
L 167.717031 13.2
L 175.717031 13.2
" style="fill: none; stroke: #252525; stroke-width: 1.25; stroke-linecap: square"/>
    <g>
     <use xlink:href="#m40ba5eb1a4" x="167.717031" y="13.2" style="fill: #252525; stroke: #252525"/>
    </g>
   </g>
   <g id="text_54">
    <text style="font-size: 8px; font-family: 'STIX Two Text', 'Times New Roman', 'Times', 'STIXGeneral', serif; text-anchor: start" x="182.117031" y="16" transform="rotate(-0 182.117031 16)">Base</text>
   </g>
   <g id="line2d_82">
    <path d="M 213.669531 13.2
L 221.669531 13.2
L 229.669531 13.2
" style="fill: none; stroke: #b85c38; stroke-width: 1.25; stroke-linecap: square"/>
    <g>
     <use xlink:href="#m641ad6da60" x="221.669531" y="13.2" style="fill: #b85c38; stroke: #b85c38; stroke-linejoin: miter"/>
    </g>
   </g>
   <g id="text_55">
    <text style="font-size: 8px; font-family: 'STIX Two Text', 'Times New Roman', 'Times', 'STIXGeneral', serif; text-anchor: start" x="236.069531" y="16" transform="rotate(-0 236.069531 16)">UT</text>
   </g>
   <g id="line2d_83">
    <path d="M 262.733281 13.2
L 270.733281 13.2
L 278.733281 13.2
" style="fill: none; stroke: #287d8e; stroke-width: 1.25; stroke-linecap: square"/>
    <g>
     <use xlink:href="#mb53c1e313b" x="270.733281" y="13.2" style="fill: #287d8e; stroke: #287d8e; stroke-linejoin: miter"/>
    </g>
   </g>
   <g id="text_56">
    <text style="font-size: 8px; font-family: 'STIX Two Text', 'Times New Roman', 'Times', 'STIXGeneral', serif; text-anchor: start" x="285.133281" y="16" transform="rotate(-0 285.133281 16)">GAME</text>
   </g>
  </g>
 </g>
 <defs>
  <clipPath id="p516a62755e">
   <rect x="34.402656" y="61.664" width="185.165919" height="124.606452"/>
  </clipPath>
  <clipPath id="p1a7eaaf2d7">
   <rect x="262.156737" y="61.664" width="185.165919" height="124.606452"/>
  </clipPath>
  <clipPath id="p79370e7161">
   <rect x="34.402656" y="246.081548" width="185.165919" height="124.606452"/>
  </clipPath>
  <clipPath id="pcfca155ec5">
   <rect x="262.156737" y="246.081548" width="185.165919" height="124.606452"/>
  </clipPath>
 </defs>
</svg>
